<svg width="119" height="119" viewBox="0 0 119 119" fill="none" xmlns="http://www.w3.org/2000/svg">
<g clip-path="url(#clip0_2007_1280)">
<path fill-rule="evenodd" clip-rule="evenodd" d="M5.97073 31.7329C5.39544 29.5859 6.66958 27.3791 8.81657 26.8038L12.7613 25.7468C19.9784 23.813 27.6683 24.8253 34.139 28.5612L47.8481 36.4762L72.8361 18.1538C76.6974 15.3227 81.8663 15.0405 86.0127 17.4343L93.7869 21.9228C94.8773 22.5524 95.6104 23.656 95.7677 24.9053C95.925 26.1546 95.4885 27.4055 94.5885 28.2858L71.7186 50.6486L83.5614 58.581L92.0224 54.9668C94.8346 53.7653 98.0488 53.9583 100.697 55.4873C105.344 58.1704 106.937 64.1128 104.254 68.76L90.0244 93.4057C87.3413 98.0529 81.3989 99.6452 76.7517 96.9621C74.1033 95.433 72.3291 92.746 71.9635 89.7098L70.863 80.5753L58.0719 74.2853L50.1401 105.273C49.8278 106.492 48.9627 107.496 47.8021 107.984C46.6416 108.473 45.3193 108.389 44.2288 107.76L36.4546 103.271C32.3083 100.877 29.9682 96.26 30.4895 91.5008L33.8631 60.699L20.1539 52.7841C13.6832 49.0482 8.96154 42.8948 7.02771 35.6776L5.97073 31.7329ZM14.7874 33.5371L14.8027 33.5943C16.184 38.7495 19.5566 43.1447 24.1786 45.8132L40.162 55.0412C41.5441 55.8393 42.3242 57.3785 42.1503 58.9647L38.4908 92.3768C38.3171 93.9633 39.0971 95.5026 40.4793 96.3006L43.6581 98.1359L51.5028 67.4893C51.8034 66.3151 52.6173 65.3387 53.718 64.8317C54.8192 64.3245 56.0898 64.3407 57.1777 64.8759L76.3734 74.3151C77.5952 74.916 78.4303 76.0935 78.5929 77.4453L79.9546 88.7469C80.0175 89.268 80.3218 89.7289 80.7763 89.9913C81.5738 90.4518 82.5931 90.1786 83.0536 89.3811L97.2828 64.7354C97.7433 63.9379 97.4701 62.9186 96.6726 62.4581C96.2181 62.1957 95.6668 62.1626 95.1841 62.3686L84.7158 66.8403C83.4637 67.3753 82.0265 67.2409 80.8951 66.4832L63.1223 54.579C62.1153 53.9043 61.466 52.812 61.3546 51.6048C61.2433 50.398 61.6815 49.2051 62.5482 48.3576L85.1669 26.2405L81.9881 24.4052C80.606 23.6072 78.8829 23.7014 77.5958 24.6451L50.4898 44.5203C49.2031 45.464 47.48 45.5581 46.0978 44.7601L30.1144 35.5321C25.4924 32.8636 19.9997 32.1405 14.8446 33.5218L14.7874 33.5371Z" fill="#57B333"/>
</g>
<defs>
<clipPath id="clip0_2007_1280">
<rect width="96.591" height="96.591" fill="white" transform="translate(0 24.9996) rotate(-15)"/>
</clipPath>
</defs>
</svg>
