<svg width="24" height="24" viewBox="0 0 24 24" fill="none" xmlns="http://www.w3.org/2000/svg">
<g clip-path="url(#clip0_616_626)">
<path d="M5.36328 12.0525C4.01081 11.5713 3.33457 11.3306 3.13309 10.9657C2.95849 10.6494 2.95032 10.2675 3.11124 9.94412C3.29694 9.57087 3.96228 9.30156 5.29295 8.76296L17.8356 3.68618C19.1461 3.15571 19.8014 2.89048 20.2154 3.02647C20.5747 3.14451 20.8565 3.42632 20.9746 3.78564C21.1106 4.19961 20.8453 4.85489 20.3149 6.16545L15.2381 18.708C14.6995 20.0387 14.4302 20.7041 14.0569 20.8898C13.7335 21.0507 13.3516 21.0425 13.0353 20.8679C12.6704 20.6664 12.4297 19.9902 11.9485 18.6377L10.4751 14.4969C10.3815 14.2338 10.3347 14.1022 10.2582 13.9924C10.1905 13.895 10.106 13.8105 10.0086 13.7428C9.89876 13.6663 9.76719 13.6195 9.50407 13.5259L5.36328 12.0525Z" fill="url(#paint0_linear_616_626)"/>
</g>
<defs>
<linearGradient id="paint0_linear_616_626" x1="10.4262" y1="10.811" x2="12.7425" y2="13.1186" gradientUnits="userSpaceOnUse">
<stop stop-color="#EBEBEB"/>
<stop offset="1" stop-color="#CECECE"/>
</linearGradient>
<clipPath id="clip0_616_626">
<rect width="24" height="24" fill="white"/>
</clipPath>
</defs>
</svg>
