<svg width="915" height="1540" viewBox="0 0 915 1540" fill="none" xmlns="http://www.w3.org/2000/svg">
<path d="M456.944 1C497.304 0.960337 532.674 23.3201 562.971 56.6514C593.272 89.9872 618.607 134.41 638.915 178.774C659.227 223.149 674.534 267.521 684.763 300.793C689.878 317.431 693.725 331.298 696.292 341.006C697.576 345.86 698.541 349.675 699.184 352.277C699.506 353.578 699.747 354.577 699.909 355.25C699.989 355.586 700.05 355.842 700.09 356.014C700.11 356.099 700.126 356.164 700.136 356.207C700.141 356.229 700.144 356.246 700.147 356.257C700.148 356.262 700.149 356.267 700.15 356.27C700.149 356.273 700.108 356.284 699.177 356.5L700.151 356.273L700.177 356.386V1539H214.177V356.386L214.203 356.274L215.177 356.5C214.242 356.284 214.205 356.274 214.204 356.271C214.204 356.268 214.205 356.263 214.207 356.258C214.209 356.247 214.213 356.23 214.218 356.208C214.228 356.165 214.244 356.1 214.264 356.015C214.304 355.843 214.365 355.587 214.445 355.251C214.605 354.578 214.846 353.581 215.167 352.281C215.807 349.681 216.768 345.87 218.046 341.02C220.604 331.319 224.437 317.464 229.534 300.839C239.727 267.591 254.986 223.249 275.247 178.894C295.503 134.548 320.783 90.1358 351.036 56.7852C381.284 23.4391 416.611 1.03974 456.944 1Z" fill="#1A1A1A" stroke="url(#paint0_linear_2028_1933)" stroke-width="2"/>
<path d="M366.129 280.992L346.152 228.152C345.022 225.164 341.244 224.223 339.035 226.541C312.045 254.863 310.031 305.522 313.423 337.038C313.889 341.37 319.777 342.434 322.202 338.804C334.493 320.4 354.098 297.776 365.209 285.719C366.39 284.437 366.744 282.619 366.129 280.992Z" fill="white" fill-opacity="0.03"/>
<path d="M444.226 247.359C419.699 252.317 398.157 262.679 386.852 269.361C384.352 270.839 381.051 269.857 379.914 267.197L356.255 211.795C355.649 210.375 355.791 208.739 356.709 207.495C376.059 181.274 419.306 170.026 443.03 167.036C445.716 166.697 448.026 168.812 448.026 171.502V242.798C448.026 245.02 446.418 246.916 444.226 247.359Z" fill="white" fill-opacity="0.03"/>
<path d="M547.225 280.992L567.203 228.152C568.333 225.164 572.11 224.223 574.319 226.541C601.31 254.863 603.323 305.522 599.932 337.038C599.465 341.37 593.577 342.434 591.153 338.804C578.861 320.4 559.257 297.776 548.145 285.719C546.964 284.437 546.61 282.619 547.225 280.992Z" fill="white" fill-opacity="0.03"/>
<path d="M469.129 247.359C493.656 252.317 515.197 262.679 526.502 269.361C529.003 270.839 532.304 269.857 533.44 267.197L557.099 211.795C557.706 210.375 557.564 208.739 556.645 207.495C537.296 181.274 494.048 170.026 470.324 167.036C467.639 166.697 465.329 168.812 465.329 171.502V242.798C465.329 245.02 466.937 246.916 469.129 247.359Z" fill="white" fill-opacity="0.03"/>
<path d="M913.265 531.751L699.476 349L697.487 669.856L854.873 788.58L913.265 531.751Z" fill="#202020"/>
<path d="M913.265 531.751L699.476 349L697.487 669.856L854.873 788.58L913.265 531.751Z" fill="black" fill-opacity="0.2"/>
<path d="M913.265 531.751L699.476 349L697.487 669.856L854.873 788.58L913.265 531.751Z" stroke="url(#paint1_linear_2028_1933)" stroke-width="2"/>
<path d="M1.10893 531.751L214.898 349L216.886 669.856L59.5005 788.58L1.10893 531.751Z" fill="#202020"/>
<path d="M1.10893 531.751L214.898 349L216.886 669.856L59.5005 788.58L1.10893 531.751Z" fill="black" fill-opacity="0.2"/>
<path d="M1.10893 531.751L214.898 349L216.886 669.856L59.5005 788.58L1.10893 531.751Z" stroke="url(#paint2_linear_2028_1933)" stroke-width="2"/>
<defs>
<linearGradient id="paint0_linear_2028_1933" x1="457.177" y1="2.00003" x2="690.42" y2="925.543" gradientUnits="userSpaceOnUse">
<stop stop-color="#202020"/>
<stop offset="1" stop-color="#454545"/>
</linearGradient>
<linearGradient id="paint1_linear_2028_1933" x1="829.336" y1="386.072" x2="737.587" y2="609.537" gradientUnits="userSpaceOnUse">
<stop stop-color="#202020"/>
<stop offset="1" stop-color="#454545"/>
</linearGradient>
<linearGradient id="paint2_linear_2028_1933" x1="85.0375" y1="386.072" x2="176.786" y2="609.537" gradientUnits="userSpaceOnUse">
<stop stop-color="#202020"/>
<stop offset="1" stop-color="#454545"/>
</linearGradient>
</defs>
</svg>
