<svg width="404" height="213" viewBox="0 0 404 213" fill="none" xmlns="http://www.w3.org/2000/svg">
<rect x="191.061" y="44.9994" width="173.864" height="173.864" rx="11.5909" transform="rotate(-15 191.061 44.9994)" fill="url(#paint0_linear_2007_1265)" fill-opacity="0.08"/>
<rect x="191.061" y="44.9994" width="173.864" height="173.864" rx="11.5909" transform="rotate(-15 191.061 44.9994)" fill="#6F6F6F" fill-opacity="0.25" style="mix-blend-mode:soft-light"/>
<rect x="191.061" y="44.9994" width="173.864" height="173.864" rx="11.5909" transform="rotate(-15 191.061 44.9994)" fill="#9D9992" fill-opacity="0.15" style="mix-blend-mode:soft-light"/>
<rect x="191.653" y="45.3409" width="172.898" height="172.898" rx="11.108" transform="rotate(-15 191.653 45.3409)" stroke="url(#paint1_linear_2007_1265)" stroke-opacity="0.16" stroke-width="0.96591" style="mix-blend-mode:lighten"/>
<path d="M215.11 70.0844L212.31 59.6348L216.834 58.4228C217.769 58.1722 218.617 58.1104 219.376 58.2376C220.133 58.3548 220.771 58.6477 221.291 59.1163C221.812 59.5849 222.177 60.2123 222.388 60.9985C222.596 61.7748 222.592 62.4959 222.375 63.1618C222.156 63.8178 221.749 64.3857 221.152 64.8656C220.555 65.3455 219.789 65.7108 218.854 65.9614L215.674 66.8134L216.465 65.4656L217.529 69.4364L215.11 70.0844ZM221.753 68.3044L218.125 65.2127L220.707 64.5207L224.366 67.6044L221.753 68.3044ZM216.537 65.7343L215.158 64.8877L218.203 64.0717C218.95 63.8717 219.464 63.5632 219.747 63.1461C220.027 62.719 220.091 62.2218 219.939 61.6545C219.785 61.0773 219.481 60.6788 219.027 60.459C218.574 60.2392 217.974 60.2293 217.227 60.4293L214.182 61.2453L214.949 59.8079L216.537 65.7343ZM229.643 66.3185C228.727 66.5638 227.873 66.6007 227.08 66.429C226.298 66.2548 225.635 65.9098 225.091 65.3941C224.545 64.8685 224.165 64.2076 223.952 63.4114C223.736 62.6053 223.729 61.8444 223.932 61.1287C224.142 60.4004 224.524 59.7754 225.078 59.2538C225.629 58.7222 226.312 58.347 227.128 58.1284C227.914 57.9177 228.666 57.8976 229.384 58.0679C230.109 58.2257 230.739 58.5687 231.276 59.097C231.809 59.6154 232.192 60.3075 232.424 61.1733C232.448 61.2629 232.471 61.3687 232.493 61.4908C232.512 61.6029 232.53 61.7101 232.547 61.8123L226.024 63.5602L225.66 62.2018L230.959 60.7818L230.171 61.4249C230.059 61.0069 229.877 60.6663 229.626 60.4031C229.374 60.1399 229.076 59.9638 228.732 59.8746C228.385 59.7754 228.013 59.7792 227.615 59.8859C227.217 59.9925 226.888 60.1768 226.627 60.4386C226.374 60.6877 226.205 60.9942 226.122 61.358C226.035 61.7119 226.049 62.1028 226.164 62.5307L226.26 62.889C226.377 63.3269 226.576 63.6897 226.855 63.9774C227.142 64.2524 227.484 64.4329 227.88 64.5187C228.284 64.5919 228.725 64.5645 229.202 64.4365C229.63 64.3218 229.986 64.1571 230.27 63.9424C230.564 63.725 230.81 63.451 231.01 63.1202L232.609 64.1317C232.352 64.6484 231.976 65.0958 231.48 65.4741C230.982 65.8423 230.369 66.1238 229.643 66.3185ZM239.451 63.5622L239.031 61.9948L238.79 61.6915L238.038 58.885C237.905 58.3874 237.647 58.0406 237.263 57.8446C236.89 57.646 236.39 57.6306 235.763 57.7986C235.335 57.9133 234.931 58.0963 234.55 58.3476C234.177 58.5863 233.876 58.8588 233.649 59.165L232.377 57.7619C232.732 57.336 233.196 56.9558 233.768 56.6213C234.339 56.2868 234.944 56.0342 235.581 55.8636C236.805 55.5356 237.832 55.5695 238.664 55.9654C239.495 56.3613 240.075 57.1713 240.403 58.3954L241.631 62.9782L239.451 63.5622ZM237.035 64.3377C236.408 64.5056 235.843 64.5451 235.339 64.4562C234.832 64.3572 234.41 64.1556 234.073 63.8514C233.735 63.5472 233.505 63.1662 233.383 62.7084C233.255 62.2307 233.257 61.782 233.39 61.3624C233.533 60.9402 233.831 60.5615 234.286 60.2265C234.737 59.8815 235.371 59.5997 236.187 59.381L238.322 58.809L238.686 60.1674L236.805 60.6714C236.257 60.8181 235.903 61.009 235.742 61.2441C235.591 61.4766 235.552 61.7272 235.624 61.9959C235.704 62.2945 235.882 62.5026 236.159 62.6204C236.443 62.7256 236.789 62.7235 237.197 62.6142C237.585 62.5102 237.91 62.3273 238.17 62.0655C238.428 61.7938 238.579 61.4601 238.622 61.0645L239.268 62.0433C239.238 62.6061 239.035 63.0819 238.659 63.4706C238.283 63.8593 237.742 64.1483 237.035 64.3377ZM247.412 61.5573C246.546 61.7893 245.728 61.8218 244.958 61.6548C244.185 61.4779 243.521 61.1279 242.964 60.605C242.418 60.0793 242.038 59.4184 241.825 58.6223C241.609 57.8161 241.608 57.0539 241.82 56.3356C242.041 55.6046 242.442 54.9743 243.026 54.4446C243.606 53.905 244.33 53.5192 245.196 53.2872C246.041 53.0606 246.826 53.0424 247.549 53.2326C248.269 53.413 248.867 53.7915 249.341 54.3684L247.795 55.8227C247.485 55.5005 247.146 55.2925 246.78 55.1987C246.423 55.1022 246.061 55.1033 245.693 55.202C245.295 55.3087 244.96 55.4942 244.69 55.7587C244.419 56.0232 244.234 56.3449 244.132 56.724C244.041 57.1004 244.058 57.5225 244.184 57.9903C244.309 58.458 244.505 58.8321 244.772 59.1125C245.05 59.3903 245.371 59.576 245.738 59.6698C246.104 59.7636 246.487 59.7572 246.885 59.6505C247.253 59.5519 247.569 59.3766 247.832 59.1248C248.102 58.8603 248.29 58.506 248.395 58.0619L250.465 58.5631C250.34 59.29 250.012 59.9166 249.481 60.4429C248.947 60.9592 248.257 61.3307 247.412 61.5573ZM254.673 50.7477C255.31 50.577 255.912 50.5544 256.479 50.6798C257.053 50.7926 257.555 51.0741 257.985 51.5242C258.412 51.9644 258.735 52.5925 258.954 53.4086L260.186 58.0064L257.857 58.6304L256.721 54.3908C256.548 53.744 256.276 53.3049 255.904 53.0738C255.543 52.8399 255.104 52.7923 254.586 52.931C254.218 53.0296 253.906 53.1986 253.65 53.4378C253.401 53.6644 253.235 53.9596 253.151 54.3234C253.077 54.6846 253.107 55.1139 253.24 55.6115L254.304 59.5824L251.976 60.2064L249.008 49.1298L251.336 48.5058L252.748 53.7754L252.046 53.2436C252.191 52.6289 252.493 52.1052 252.953 51.6726C253.413 51.24 253.986 50.9317 254.673 50.7477ZM265.928 56.468L263.776 48.4367L266 47.8407L266.608 50.1098L266.118 49.537C266.205 48.9057 266.474 48.3751 266.924 47.9452C267.371 47.5053 267.973 47.184 268.729 46.9813L269.305 49.131C269.203 49.1477 269.112 49.1667 269.033 49.188C268.95 49.1994 268.865 49.2171 268.775 49.2411C268.138 49.4118 267.67 49.7345 267.37 50.2094C267.078 50.6717 267.035 51.286 267.24 52.0523L268.256 55.844L265.928 56.468ZM275.959 53.908C275.043 54.1534 274.189 54.1902 273.397 54.0186C272.614 53.8443 271.951 53.4994 271.407 52.9837C270.861 52.458 270.481 51.7971 270.268 51.001C270.052 50.1949 270.046 49.434 270.248 48.7183C270.459 47.99 270.841 47.365 271.394 46.8433C271.945 46.3117 272.628 45.9366 273.444 45.7179C274.231 45.5073 274.983 45.4871 275.7 45.6575C276.425 45.8153 277.056 46.1583 277.592 46.6866C278.126 47.205 278.508 47.897 278.74 48.7629C278.764 48.8524 278.787 48.9583 278.809 49.0803C278.829 49.1925 278.847 49.2997 278.864 49.4018L272.34 51.1498L271.976 49.7914L277.275 48.3714L276.488 49.0144C276.376 48.5965 276.194 48.2559 275.942 47.9927C275.69 47.7295 275.392 47.5533 275.048 47.4641C274.702 47.365 274.329 47.3688 273.931 47.4754C273.533 47.5821 273.204 47.7663 272.944 48.0281C272.69 48.2773 272.522 48.5838 272.438 48.9476C272.351 49.3015 272.365 49.6923 272.48 50.1203L272.576 50.4785C272.693 50.9164 272.892 51.2792 273.172 51.5669C273.459 51.842 273.8 52.0225 274.197 52.1083C274.6 52.1814 275.041 52.154 275.519 52.026C275.947 51.9114 276.303 51.7467 276.586 51.532C276.88 51.3146 277.127 51.0405 277.326 50.7098L278.925 51.7213C278.669 52.238 278.293 52.6854 277.797 53.0636C277.298 53.4319 276.686 53.7134 275.959 53.908ZM285.768 51.1518L285.348 49.5844L285.106 49.281L284.354 46.4746C284.221 45.977 283.963 45.6302 283.58 45.4342C283.206 45.2355 282.706 45.2202 282.079 45.3882C281.651 45.5029 281.247 45.6859 280.867 45.9372C280.493 46.1759 280.193 46.4484 279.966 46.7546L278.694 45.3514C279.049 44.9256 279.512 44.5454 280.084 44.2109C280.656 43.8764 281.26 43.6238 281.897 43.4531C283.121 43.1251 284.149 43.1591 284.98 43.555C285.812 43.9509 286.391 44.7608 286.719 45.9849L287.947 50.5678L285.768 51.1518ZM283.352 51.9272C282.725 52.0952 282.159 52.1347 281.655 52.0457C281.149 51.9468 280.727 51.7452 280.389 51.441C280.052 51.1368 279.822 50.7557 279.699 50.298C279.571 49.8203 279.573 49.3716 279.706 48.952C279.849 48.5297 280.148 48.1511 280.602 47.816C281.054 47.4711 281.687 47.1892 282.503 46.9706L284.638 46.3986L285.002 47.757L283.121 48.261C282.574 48.4077 282.22 48.5986 282.059 48.8337C281.908 49.0662 281.868 49.3168 281.94 49.5855C282.02 49.884 282.198 50.0922 282.475 50.21C282.76 50.3152 283.106 50.3131 283.514 50.2038C283.902 50.0998 284.226 49.9169 284.487 49.6551C284.745 49.3833 284.895 49.0497 284.938 48.6541L285.585 49.6329C285.554 50.1957 285.351 50.6715 284.975 51.0602C284.599 51.4489 284.058 51.7379 283.352 51.9272ZM289.756 50.0831L286.788 39.0065L289.117 38.3825L292.085 49.4591L289.756 50.0831ZM302.803 46.5872L302.383 45.0198L302.142 44.7164L301.39 41.91C301.256 41.4124 300.998 41.0656 300.615 40.8696C300.242 40.6709 299.742 40.6556 299.115 40.8236C298.687 40.9383 298.283 41.1212 297.902 41.3726C297.529 41.6113 297.228 41.8837 297.001 42.19L295.729 40.7868C296.084 40.361 296.548 39.9808 297.119 39.6463C297.691 39.3118 298.295 39.0592 298.932 38.8885C300.156 38.5605 301.184 38.5945 302.015 38.9904C302.847 39.3862 303.427 40.1962 303.755 41.4203L304.983 46.0032L302.803 46.5872ZM300.387 47.3626C299.76 47.5306 299.195 47.5701 298.691 47.4811C298.184 47.3822 297.762 47.1806 297.425 46.8764C297.087 46.5721 296.857 46.1911 296.734 45.7333C296.606 45.2556 296.609 44.807 296.742 44.3874C296.885 43.9651 297.183 43.5865 297.637 43.2514C298.089 42.9064 298.723 42.6246 299.539 42.406L301.673 41.834L302.037 43.1924L300.157 43.6964C299.609 43.8431 299.255 44.034 299.094 44.2691C298.943 44.5016 298.903 44.7521 298.975 45.0209C299.055 45.3194 299.234 45.5276 299.511 45.6454C299.795 45.7506 300.141 45.7485 300.549 45.6392C300.937 45.5352 301.262 45.3523 301.522 45.0905C301.78 44.8187 301.93 44.485 301.974 44.0894L302.62 45.0683C302.59 45.6311 302.386 46.1069 302.011 46.4956C301.635 46.8843 301.093 47.1733 300.387 47.3626ZM306.792 45.5185L304.64 37.4872L306.968 36.8632L309.12 44.8945L306.792 45.5185ZM305.504 36.0556C305.076 36.1703 304.694 36.1392 304.359 35.9624C304.024 35.7856 303.807 35.5131 303.708 35.1449C303.609 34.7767 303.661 34.4322 303.863 34.1114C304.065 33.7906 304.38 33.5728 304.808 33.4582C305.236 33.3435 305.616 33.3696 305.949 33.5364C306.279 33.6933 306.493 33.9559 306.592 34.3241C306.696 34.7122 306.648 35.0717 306.449 35.4024C306.257 35.7206 305.942 35.9383 305.504 36.0556ZM310.983 44.3954L308.831 36.3641L311.055 35.7681L311.663 38.0372L311.174 37.4643C311.261 36.8331 311.529 36.3025 311.979 35.8725C312.427 35.4327 313.029 35.1114 313.785 34.9087L314.361 37.0583C314.259 37.0751 314.168 37.0941 314.088 37.1154C314.006 37.1268 313.92 37.1445 313.831 37.1685C313.194 37.3391 312.726 37.6619 312.426 38.1368C312.134 38.5991 312.091 39.2134 312.296 39.9797L313.312 43.7714L310.983 44.3954ZM321.849 41.6119C321.172 41.7932 320.54 41.8026 319.952 41.64C319.365 41.4775 318.845 41.1313 318.394 40.6016C317.95 40.0592 317.603 39.3203 317.352 38.3848C317.099 37.4394 317.025 36.6271 317.131 35.9481C317.237 35.269 317.504 34.7122 317.932 34.2776C318.359 33.8431 318.926 33.5311 319.633 33.3418C320.389 33.1391 321.113 33.132 321.803 33.3203C322.501 33.496 323.107 33.8457 323.62 34.3694C324.144 34.8904 324.518 35.5689 324.742 36.4049C324.968 37.2508 324.985 38.0302 324.792 38.7433C324.609 39.4536 324.259 40.0593 323.743 40.5603C323.237 41.0587 322.605 41.4092 321.849 41.6119ZM317.846 45.6605L314.918 34.7332L317.142 34.1372L317.582 35.7793L318.177 38.1798L318.963 40.5133L320.175 45.0365L317.846 45.6605ZM320.934 39.8091C321.322 39.7051 321.641 39.5235 321.892 39.2644C322.152 39.0026 322.328 38.6835 322.419 38.3071C322.518 37.9181 322.506 37.4946 322.383 37.0368C322.258 36.5691 322.056 36.1964 321.779 35.9186C321.512 35.6382 321.2 35.4498 320.844 35.3533C320.497 35.2541 320.13 35.2566 319.742 35.3606C319.354 35.4646 319.029 35.6475 318.769 35.9093C318.508 36.1711 318.333 36.4902 318.241 36.8666C318.15 37.243 318.167 37.6651 318.293 38.1328C318.415 38.5906 318.612 38.9647 318.881 39.2551C319.149 39.5355 319.46 39.7239 319.817 39.8204C320.173 39.9169 320.546 39.9131 320.934 39.8091ZM330.931 39.1782C330.076 39.4075 329.266 39.4324 328.504 39.2528C327.751 39.0705 327.098 38.7229 326.544 38.2098C325.998 37.6842 325.618 37.0233 325.405 36.2271C325.189 35.421 325.187 34.6588 325.4 33.9404C325.62 33.2095 326.012 32.5818 326.576 32.0575C327.146 31.5206 327.86 31.1374 328.716 30.9081C329.561 30.6815 330.366 30.6579 331.129 30.8375C331.889 31.0072 332.54 31.3499 333.084 31.8656C333.628 32.3812 334.009 33.0471 334.227 33.8632C334.441 34.6593 334.442 35.4216 334.232 36.1499C334.019 36.8682 333.627 37.4959 333.057 38.0328C332.486 38.5697 331.777 38.9515 330.931 39.1782ZM330.419 37.2674C330.808 37.1634 331.132 36.9805 331.392 36.7187C331.653 36.4569 331.829 36.1378 331.92 35.7614C332.008 35.375 331.991 34.953 331.869 34.4952C331.743 34.0274 331.547 33.6533 331.28 33.3729C331.013 33.0925 330.701 32.9041 330.344 32.8076C329.988 32.7111 329.616 32.7149 329.228 32.8189C328.839 32.9229 328.515 33.1058 328.255 33.3676C327.994 33.6294 327.813 33.9498 327.712 34.3289C327.621 34.7053 327.638 35.1274 327.763 35.5952C327.886 36.0529 328.082 36.427 328.352 36.7174C328.629 36.9951 328.946 37.1823 329.303 37.2787C329.659 37.3752 330.031 37.3714 330.419 37.2674ZM336.561 37.5417L334.409 29.5105L336.634 28.9145L337.242 31.1835L336.752 30.6107C336.839 29.9794 337.107 29.4488 337.558 29.0189C338.005 28.579 338.607 28.2577 339.363 28.0551L339.939 30.2047C339.837 30.2214 339.746 30.2404 339.667 30.2618C339.584 30.2731 339.498 30.2908 339.409 30.3148C338.772 30.4855 338.304 30.8083 338.004 31.2832C337.712 31.7454 337.669 32.3597 337.874 33.126L338.89 36.9177L336.561 37.5417ZM346.226 35.0799C345.281 35.3333 344.481 35.2917 343.825 34.9554C343.167 34.6091 342.71 33.9582 342.454 33.0028L340.566 25.9568L342.895 25.3328L344.775 32.349C344.865 32.6873 345.026 32.9271 345.255 33.0682C345.483 33.1993 345.75 33.2235 346.059 33.1409C346.427 33.0422 346.714 32.8587 346.919 32.5903L347.986 34.0644C347.793 34.2976 347.539 34.5043 347.224 34.6845C346.917 34.8521 346.585 34.9839 346.226 35.0799ZM340.331 30.0357L339.851 28.2444L345.419 26.7524L345.899 28.5438L340.331 30.0357ZM351.833 33.5777C351.146 33.7617 350.463 33.8594 349.784 33.8708C349.111 33.8696 348.558 33.794 348.123 33.6438L348.451 31.7639C348.881 31.8941 349.364 31.9672 349.902 31.9832C350.447 31.9865 350.963 31.9228 351.451 31.7922C351.988 31.6482 352.349 31.4822 352.533 31.2941C352.727 31.1034 352.794 30.8936 352.732 30.6647C352.682 30.4756 352.555 30.3603 352.352 30.3187C352.156 30.2645 351.907 30.2512 351.605 30.2788C351.303 30.3064 350.971 30.3419 350.61 30.3855C350.258 30.4264 349.897 30.4537 349.528 30.4675C349.155 30.4712 348.802 30.4272 348.468 30.3353C348.134 30.2435 347.839 30.0772 347.583 29.8366C347.336 29.5934 347.152 29.2428 347.029 28.785C346.893 28.2775 346.917 27.791 347.102 27.3255C347.296 26.8574 347.643 26.4392 348.142 26.0709C348.638 25.6927 349.274 25.3996 350.05 25.1916C350.597 25.0449 351.171 24.9553 351.77 24.9227C352.369 24.8902 352.888 24.9376 353.328 25.0652L352.996 26.9302C352.546 26.8053 352.112 26.7564 351.692 26.7834C351.28 26.7979 350.89 26.8544 350.522 26.9531C350.004 27.0917 349.645 27.2627 349.443 27.4661C349.242 27.6694 349.17 27.8805 349.229 28.0995C349.282 28.2985 349.407 28.4251 349.603 28.4793C349.809 28.5308 350.064 28.5478 350.368 28.5302C350.673 28.5125 351.001 28.4833 351.353 28.4424C351.712 28.3889 352.078 28.3602 352.45 28.3564C352.822 28.3527 353.17 28.3981 353.494 28.4926C353.826 28.5745 354.12 28.7357 354.376 28.9763C354.63 29.207 354.818 29.5512 354.941 30.009C355.074 30.5066 355.043 30.9895 354.849 31.4576C354.652 31.9158 354.299 32.3303 353.79 32.7013C353.291 33.0695 352.639 33.3617 351.833 33.5777Z" fill="white"/>
<g clip-path="url(#clip0_2007_1265)">
<path d="M294.753 78.8595C286.295 81.1257 278.699 85.849 272.926 92.432C267.153 99.0151 263.461 107.162 262.319 115.843C261.176 124.524 262.633 133.349 266.505 141.202C270.378 149.055 276.492 155.584 284.075 159.962C291.658 164.34 300.369 166.371 309.106 165.798C317.843 165.225 326.215 162.075 333.161 156.744C340.108 151.414 345.318 144.144 348.132 135.852C350.947 127.561 351.239 118.621 348.973 110.164C345.922 98.8301 338.5 89.1694 328.335 83.3009C318.171 77.4323 306.093 75.8351 294.753 78.8595ZM282.78 94.0591C283.452 97.1719 283.202 100.413 282.058 103.386C280.318 103.019 278.239 102.505 275.912 101.878C277.814 98.9557 280.127 96.3223 282.78 94.0591ZM290.738 154.33C283.458 150.898 277.529 145.139 273.886 137.962C286.639 129.441 292.433 127.118 294.766 126.493C294.643 127.717 294.207 128.889 293.498 129.895C292.6 131.196 292.074 132.719 291.978 134.298C291.988 135.441 292.326 136.558 292.952 137.515C293.578 138.472 294.465 139.23 295.508 139.698C296.132 141.31 293.522 147.571 291.796 151.717C291.439 152.563 291.093 153.464 290.738 154.33ZM315.586 156.609C309.957 158.118 304.046 158.236 298.361 156.954C298.65 156.243 298.935 155.504 299.222 154.815C302.653 146.583 306.19 138.09 300.657 133.597C301.685 131.993 302.364 130.191 302.651 128.307C302.938 126.424 302.826 124.501 302.323 122.664C302.085 121.747 301.628 120.903 300.991 120.203C300.354 119.502 299.556 118.967 298.667 118.643C296.526 117.854 292.214 116.252 271.045 130.178C269.345 123.229 269.754 115.932 272.221 109.217C275.544 110.144 278.406 110.856 280.76 111.338C282.098 111.624 283.489 111.533 284.779 111.076C286.069 110.618 287.206 109.812 288.065 108.747C291.603 104.532 291.757 96.0909 289.976 89.2393C295.837 86.2962 302.392 85.0166 308.93 85.5397C297.862 94.2261 296.753 101.877 298.157 107.114C301.317 118.908 309.402 117.717 313.743 117.079C317.351 116.549 317.351 116.549 317.873 118.497C318.691 121.797 318.865 125.223 318.386 128.589C317.988 132.749 317.391 139.042 326.163 140.838C327.615 141.129 329.115 141.074 330.541 140.677C334.077 139.386 337.286 137.335 339.944 134.67C337.898 139.987 334.626 144.745 330.393 148.558C326.16 152.37 321.087 155.129 315.586 156.609ZM342.399 122.404C340.013 124.02 337.751 125.812 335.631 127.764C332.978 130.087 329.348 133.268 327.774 132.948C327.263 132.849 326.76 132.715 326.267 132.548C326.206 131.479 326.25 130.407 326.397 129.346C326.976 125.027 326.721 120.637 325.648 116.414C323.27 107.538 316.055 108.601 312.568 109.115C308.367 109.736 307.237 109.901 305.932 105.03C304.236 98.7014 313.037 91.9724 319.507 87.9889C326.397 90.6764 332.292 95.4225 336.389 101.581C340.485 107.739 342.584 115.01 342.399 122.404Z" fill="#FFAE17"/>
</g>
<mask id="mask0_2007_1265" style="mask-type:alpha" maskUnits="userSpaceOnUse" x="0" y="2" width="172" height="209">
<path d="M154.142 3.29562C160.325 1.63887 166.681 5.30838 168.338 11.4917L171.837 24.5523L105.624 42.2952C99.4402 43.952 95.7707 50.3081 97.4275 56.4914L132.927 188.977L53.5936 210.234C47.4103 211.891 41.0542 208.222 39.3974 202.038L0.397819 56.4914C-1.259 50.3081 2.41058 43.952 8.59391 42.2952L154.142 3.29562Z" fill="#D9D9D9"/>
</mask>
<g mask="url(#mask0_2007_1265)">
<rect x="-2.89771" y="45.3979" width="173.864" height="173.864" rx="11.5909" transform="rotate(-15 -2.89771 45.3979)" fill="url(#paint2_linear_2007_1265)" fill-opacity="0.08"/>
<rect x="-2.89771" y="45.3979" width="173.864" height="173.864" rx="11.5909" transform="rotate(-15 -2.89771 45.3979)" fill="#6F6F6F" fill-opacity="0.25" style="mix-blend-mode:soft-light"/>
<rect x="-2.89771" y="45.3979" width="173.864" height="173.864" rx="11.5909" transform="rotate(-15 -2.89771 45.3979)" fill="#9D9992" fill-opacity="0.15" style="mix-blend-mode:soft-light"/>
<rect x="-2.30621" y="45.7395" width="172.898" height="172.898" rx="11.108" transform="rotate(-15 -2.30621 45.7395)" stroke="url(#paint3_linear_2007_1265)" stroke-opacity="0.16" stroke-width="0.96591" style="mix-blend-mode:lighten"/>
<path d="M24.633 69.7421C23.797 69.9661 22.9665 70.0713 22.1415 70.0577C21.3139 70.0341 20.6182 69.9058 20.0545 69.6729L20.3875 67.6317C20.9207 67.8302 21.5188 67.9526 22.1819 67.9989C22.8522 68.0326 23.5009 67.9655 24.1279 67.7975C24.6056 67.6695 24.9767 67.522 25.2413 67.3551C25.5132 67.1756 25.6962 66.9826 25.7902 66.7761C25.8842 66.5695 25.9018 66.3568 25.8432 66.1379C25.7685 65.8592 25.6004 65.6696 25.3388 65.569C25.0745 65.4585 24.7499 65.4015 24.3649 65.398C23.9773 65.3845 23.5526 65.3916 23.0907 65.4194C22.6361 65.4346 22.1712 65.4311 21.696 65.4091C21.2307 65.3845 20.7896 65.3107 20.3727 65.1877C19.9557 65.0648 19.5848 64.8548 19.2599 64.5579C18.945 64.2583 18.7128 63.8298 18.5635 63.2725C18.4035 62.6754 18.4174 62.0904 18.6052 61.5174C18.8003 60.9318 19.1826 60.408 19.7522 59.9461C20.329 59.4715 21.11 59.1022 22.0953 58.8382C22.7521 58.6623 23.4203 58.5685 24.0999 58.5571C24.7768 58.5357 25.4004 58.6139 25.9708 58.7918L25.7164 60.8279C25.154 60.6799 24.6117 60.6066 24.0894 60.6079C23.5644 60.5992 23.0681 60.6576 22.6003 60.7829C22.1326 60.9082 21.7641 61.0656 21.4949 61.2551C21.2257 61.4446 21.0503 61.6462 20.969 61.86C20.8849 62.0638 20.8736 62.2802 20.9349 62.5091C21.0069 62.7778 21.175 62.9674 21.4393 63.0779C21.7009 63.1785 22.0242 63.2306 22.4091 63.2341C22.7941 63.2376 23.2138 63.2318 23.6684 63.2166C24.133 63.1988 24.5966 63.1973 25.0592 63.212C25.5317 63.224 25.9765 63.2915 26.3934 63.4145C26.8104 63.5374 27.1763 63.7487 27.4912 64.0483C27.8161 64.3452 28.0519 64.7674 28.1986 65.3147C28.3559 65.9019 28.3357 66.4833 28.1379 67.059C27.9402 67.6346 27.5529 68.1597 26.9761 68.6343C26.4092 69.1062 25.6281 69.4754 24.633 69.7421ZM34.226 67.1076C33.3104 67.353 32.4563 67.3898 31.6637 67.2182C30.881 67.0439 30.2179 66.699 29.6744 66.1833C29.1282 65.6576 28.7485 64.9967 28.5351 64.2006C28.3191 63.3945 28.3126 62.6336 28.5155 61.9179C28.7257 61.1896 29.1075 60.5646 29.6611 60.0429C30.212 59.5113 30.8954 59.1362 31.7115 58.9175C32.4977 58.7069 33.2496 58.6867 33.9673 58.8571C34.6922 59.0149 35.3228 59.3579 35.859 59.8862C36.3925 60.4046 36.7753 61.0966 37.0073 61.9625C37.0313 62.052 37.0543 62.1579 37.0764 62.28C37.0958 62.3921 37.1138 62.4993 37.1305 62.6014L30.607 64.3494L30.243 62.991L35.5424 61.571L34.7547 62.214C34.6427 61.7961 34.4608 61.4555 34.209 61.1923C33.9571 60.9291 33.6593 60.7529 33.3154 60.6638C32.9688 60.5646 32.5965 60.5684 32.1984 60.675C31.8003 60.7817 31.471 60.9659 31.2105 61.2277C30.9573 61.4769 30.7888 61.7834 30.7049 62.1472C30.6184 62.5011 30.6325 62.8919 30.7471 63.3199L30.8431 63.6782C30.9605 64.116 31.159 64.4788 31.4387 64.7665C31.7258 65.0416 32.0675 65.2221 32.4638 65.3079C32.8674 65.381 33.308 65.3536 33.7857 65.2256C34.2137 65.111 34.5695 64.9463 34.8533 64.7316C35.1471 64.5142 35.3936 64.2401 35.593 63.9094L37.192 64.9209C36.9358 65.4376 36.5597 65.885 36.0637 66.2632C35.5651 66.6315 34.9525 66.913 34.226 67.1076ZM42.6433 64.8522C41.6978 65.1056 40.8974 65.0641 40.2419 64.7277C39.5838 64.3814 39.1268 63.7305 38.8708 62.7751L36.9828 55.7291L39.3116 55.1051L41.1915 62.1213C41.2822 62.4597 41.4424 62.6994 41.6722 62.8405C41.8994 62.9716 42.1672 62.9958 42.4757 62.9132C42.8439 62.8145 43.1308 62.631 43.3362 62.3626L44.4031 63.8367C44.2096 64.0699 43.9557 64.2766 43.6413 64.4568C43.3342 64.6244 43.0016 64.7562 42.6433 64.8522ZM36.7478 59.808L36.2678 58.0167L41.8359 56.5247L42.3159 58.3161L36.7478 59.808ZM52.7611 62.1412C51.8156 62.3945 51.0152 62.353 50.3597 62.0166C49.7016 61.6703 49.2445 61.0195 48.9886 60.0641L47.1006 53.0181L49.4293 52.3941L51.3093 59.4102C51.4 59.7486 51.5602 59.9883 51.79 60.1294C52.0171 60.2606 52.285 60.2848 52.5935 60.2021C52.9617 60.1035 53.2485 59.9199 53.4539 59.6516L54.5209 61.1256C54.3274 61.3588 54.0735 61.5655 53.7591 61.7458C53.452 61.9134 53.1193 62.0452 52.7611 62.1412ZM46.8655 57.097L46.3856 55.3056L51.9537 53.8137L52.4337 55.605L46.8655 57.097ZM55.6336 61.2435L53.4816 53.2123L55.8104 52.5883L57.9624 60.6195L55.6336 61.2435ZM54.346 51.7807C53.9181 51.8953 53.5364 51.8643 53.2011 51.6875C52.8657 51.5107 52.6487 51.2381 52.55 50.8699C52.4513 50.5017 52.503 50.1572 52.7051 49.8364C52.9071 49.5156 53.2221 49.2979 53.65 49.1832C54.078 49.0685 54.4583 49.0946 54.791 49.2615C55.121 49.4184 55.3354 49.6809 55.434 50.0491C55.538 50.4373 55.4903 50.7967 55.291 51.1275C55.0989 51.4456 54.7839 51.6633 54.346 51.7807ZM67.9265 49.2138C68.5634 49.0431 69.1604 49.0218 69.7174 49.1499C70.2816 49.2654 70.7737 49.5495 71.1937 50.0023C71.621 50.4425 71.944 51.0706 72.1626 51.8866L73.3946 56.4844L71.0659 57.1084L69.9299 52.8689C69.7565 52.222 69.4942 51.7803 69.1428 51.5438C68.7915 51.3073 68.3719 51.2544 67.8843 51.385C67.5459 51.4757 67.2637 51.6366 67.0377 51.8679C66.809 52.0892 66.6613 52.3741 66.5947 52.7226C66.5281 53.0711 66.5588 53.4842 66.6868 53.9619L67.7668 57.9924L65.438 58.6164L64.302 54.3769C64.1287 53.73 63.8663 53.2883 63.515 53.0518C63.1736 52.8126 62.759 52.7583 62.2714 52.889C61.933 52.9797 61.6508 53.1406 61.4248 53.3719C61.1961 53.5931 61.0484 53.878 60.9818 54.2265C60.9152 54.5751 60.9459 54.9882 61.0739 55.4658L62.1539 59.4964L59.8251 60.1204L57.6731 52.0891L59.8974 51.4932L60.4854 53.6876L59.8954 53.1577C60.0274 52.5356 60.3098 52.0173 60.7427 51.6026C61.1829 51.1754 61.7314 50.8737 62.3882 50.6977C63.1247 50.5004 63.8172 50.5175 64.4659 50.749C65.1219 50.9679 65.6421 51.4365 66.0266 52.1548L65.1456 52.1509C65.2463 51.4519 65.5409 50.8396 66.0294 50.3141C66.5278 49.7859 67.1602 49.4191 67.9265 49.2138ZM79.2595 55.041C78.3439 55.2863 77.4898 55.3231 76.6972 55.1515C75.9145 54.9773 75.2514 54.6323 74.7079 54.1166C74.1617 53.591 73.7819 52.9301 73.5686 52.1339C73.3526 51.3278 73.3461 50.5669 73.549 49.8512C73.7591 49.1229 74.141 48.4979 74.6945 47.9763C75.2454 47.4447 75.9289 47.0695 76.745 46.8509C77.5312 46.6402 78.2831 46.6201 79.0007 46.7904C79.7257 46.9482 80.3562 47.2912 80.8924 47.8195C81.426 48.3379 81.8088 49.03 82.0408 49.8958C82.0648 49.9854 82.0878 50.0912 82.1098 50.2133C82.1292 50.3254 82.1473 50.4326 82.164 50.5348L75.6405 52.2827L75.2765 50.9243L80.5759 49.5043L79.7882 50.1474C79.6762 49.7294 79.4943 49.3888 79.2424 49.1256C78.9906 48.8624 78.6927 48.6863 78.3488 48.5971C78.0023 48.4979 77.63 48.5017 77.2319 48.6084C76.8338 48.715 76.5045 48.8993 76.244 49.1611C75.9908 49.4102 75.8222 49.7167 75.7384 50.0805C75.6519 50.4344 75.6659 50.8253 75.7806 51.2532L75.8766 51.6115C75.9939 52.0494 76.1925 52.4122 76.4722 52.6999C76.7593 52.9749 77.1009 53.1554 77.4973 53.2412C77.9009 53.3144 78.3415 53.287 78.8192 53.159C79.2471 53.0443 79.603 52.8796 79.8868 52.6649C80.1805 52.4475 80.4271 52.1735 80.6265 51.8427L82.2255 52.8542C81.9693 53.3709 81.5932 53.8183 81.0972 54.1966C80.5985 54.5648 79.986 54.8463 79.2595 55.041ZM84.3606 53.5461L82.2086 45.5149L84.4329 44.9189L85.0409 47.1879L84.5514 46.6151C84.6383 45.9838 84.9067 45.4532 85.3569 45.0233C85.8043 44.5834 86.4062 44.2621 87.1626 44.0595L87.7386 46.2091C87.6364 46.2258 87.5455 46.2448 87.4659 46.2662C87.3836 46.2776 87.2977 46.2952 87.2081 46.3192C86.5712 46.4899 86.103 46.8127 85.8036 47.2876C85.5114 47.7498 85.468 48.3641 85.6734 49.1304L86.6894 52.9221L84.3606 53.5461Z" fill="white"/>
<g clip-path="url(#clip1_2007_1265)">
<path d="M72.5162 105.981C70.2844 112.538 69.9056 119.805 71.8327 126.997C77.0104 146.32 96.872 157.787 116.195 152.61C135.518 147.432 146.985 127.571 141.808 108.248C136.63 88.9246 116.768 77.4574 97.4453 82.635L100.57 94.2975M106.82 117.622L87.1036 106.239" stroke="#CD4D3C" stroke-width="7.72728" stroke-linecap="round" stroke-linejoin="round"/>
</g>
</g>
<mask id="mask1_2007_1265" style="mask-type:alpha" maskUnits="userSpaceOnUse" x="96" y="2" width="173" height="209">
<path d="M250.638 3.29562C256.821 1.63887 263.178 5.30838 264.834 11.4917L268.334 24.5523L202.12 42.2952C195.937 43.952 192.267 50.3081 193.924 56.4914L229.423 188.977L150.09 210.234C143.907 211.891 137.551 208.222 135.894 202.038L96.8943 56.4914C95.2375 50.3081 98.907 43.952 105.09 42.2952L250.638 3.29562Z" fill="#D9D9D9"/>
</mask>
<g mask="url(#mask1_2007_1265)">
<rect x="93.5988" y="45.3979" width="173.864" height="173.864" rx="11.5909" transform="rotate(-15 93.5988 45.3979)" fill="url(#paint4_linear_2007_1265)" fill-opacity="0.08"/>
<rect x="93.5988" y="45.3979" width="173.864" height="173.864" rx="11.5909" transform="rotate(-15 93.5988 45.3979)" fill="#6F6F6F" fill-opacity="0.25" style="mix-blend-mode:soft-light"/>
<rect x="93.5988" y="45.3979" width="173.864" height="173.864" rx="11.5909" transform="rotate(-15 93.5988 45.3979)" fill="#9D9992" fill-opacity="0.15" style="mix-blend-mode:soft-light"/>
<rect x="94.1903" y="45.7395" width="172.898" height="172.898" rx="11.108" transform="rotate(-15 94.1903 45.7395)" stroke="url(#paint5_linear_2007_1265)" stroke-opacity="0.16" stroke-width="0.96591" style="mix-blend-mode:lighten"/>
<path d="M119.813 69.903L117.541 61.4239L114.197 62.3199L113.669 60.3494L122.775 57.9094L123.303 59.8799L119.959 60.7759L122.231 69.255L119.813 69.903ZM130.931 66.9237L130.511 65.3563L130.27 65.0529L129.518 62.2465C129.385 61.7489 129.126 61.4021 128.743 61.2061C128.37 61.0074 127.87 60.9921 127.243 61.1601C126.815 61.2748 126.411 61.4578 126.03 61.7091C125.657 61.9478 125.356 62.2203 125.129 62.5265L123.857 61.1233C124.212 60.6975 124.676 60.3173 125.247 59.9828C125.819 59.6483 126.423 59.3957 127.06 59.225C128.284 58.897 129.312 58.931 130.144 59.3269C130.975 59.7228 131.555 60.5327 131.883 61.7568L133.111 66.3397L130.931 66.9237ZM128.515 67.6991C127.888 67.8671 127.323 67.9066 126.819 67.8176C126.312 67.7187 125.89 67.5171 125.553 67.2129C125.215 66.9087 124.985 66.5277 124.862 66.0699C124.734 65.5922 124.737 65.1435 124.87 64.7239C125.013 64.3016 125.311 63.923 125.765 63.588C126.217 63.243 126.851 62.9611 127.667 62.7425L129.802 62.1705L130.166 63.5289L128.285 64.0329C127.737 64.1796 127.383 64.3705 127.222 64.6056C127.071 64.8381 127.032 65.0887 127.104 65.3574C127.184 65.6559 127.362 65.8641 127.639 65.9819C127.923 66.0871 128.269 66.085 128.677 65.9757C129.065 65.8717 129.39 65.6888 129.65 65.427C129.908 65.1552 130.059 64.8216 130.102 64.426L130.748 65.4048C130.718 65.9676 130.514 66.4434 130.139 66.8321C129.763 67.2208 129.222 67.5098 128.515 67.6991ZM136.405 63.6969L135.705 60.8446L138.5 56.2878L141.277 55.5438L138.659 60.1651L137.714 61.4744L136.405 63.6969ZM134.92 65.855L131.952 54.7784L134.281 54.1544L137.249 65.231L134.92 65.855ZM140.906 64.251L137.285 61.6053L138.264 59.407L143.727 63.495L140.906 64.251ZM148.158 62.4357C147.243 62.681 146.389 62.7179 145.596 62.5463C144.813 62.372 144.15 62.027 143.607 61.5113C143.061 60.9857 142.681 60.3248 142.468 59.5286C142.252 58.7225 142.245 57.9616 142.448 57.2459C142.658 56.5176 143.04 55.8926 143.594 55.371C144.144 54.8394 144.828 54.4643 145.644 54.2456C146.43 54.0349 147.182 54.0148 147.9 54.1852C148.625 54.3429 149.255 54.6859 149.791 55.2142C150.325 55.7326 150.708 56.4247 150.94 57.2905C150.964 57.3801 150.987 57.4859 151.009 57.608C151.028 57.7201 151.046 57.8273 151.063 57.9295L144.539 59.6775L144.175 58.319L149.475 56.899L148.687 57.5421C148.575 57.1241 148.393 56.7835 148.141 56.5203C147.89 56.2572 147.592 56.081 147.248 55.9918C146.901 55.8927 146.529 55.8964 146.131 56.0031C145.733 56.1098 145.403 56.294 145.143 56.5558C144.89 56.805 144.721 57.1115 144.637 57.4753C144.551 57.8291 144.565 58.22 144.68 58.6479L144.776 59.0062C144.893 59.4441 145.091 59.8069 145.371 60.0946C145.658 60.3697 146 60.5501 146.396 60.6359C146.8 60.7091 147.24 60.6817 147.718 60.5537C148.146 60.439 148.502 60.2743 148.786 60.0596C149.08 59.8423 149.326 59.5682 149.525 59.2374L151.124 60.249C150.868 60.7656 150.492 61.2131 149.996 61.5913C149.498 61.9596 148.885 62.241 148.158 62.4357ZM161.042 58.9835C160.186 59.2128 159.377 59.2377 158.614 59.0581C157.861 58.8758 157.208 58.5281 156.655 58.0151C156.109 57.4895 155.729 56.8286 155.516 56.0324C155.3 55.2263 155.298 54.4641 155.511 53.7457C155.731 53.0148 156.123 52.3871 156.686 51.8628C157.257 51.3259 157.97 50.9427 158.826 50.7134C159.672 50.4867 160.477 50.4632 161.239 50.6428C161.999 50.8125 162.651 51.1551 163.195 51.6708C163.738 52.1865 164.119 52.8524 164.338 53.6685C164.551 54.4646 164.553 55.2269 164.343 55.9552C164.13 56.6735 163.738 57.3012 163.167 57.8381C162.596 58.375 161.888 58.7568 161.042 58.9835ZM160.53 57.0727C160.918 56.9687 161.243 56.7858 161.503 56.524C161.764 56.2622 161.94 55.9431 162.031 55.5667C162.119 55.1803 162.102 54.7582 161.979 54.3005C161.854 53.8327 161.658 53.4586 161.391 53.1782C161.124 52.8978 160.812 52.7094 160.455 52.6129C160.099 52.5164 159.726 52.5202 159.338 52.6242C158.95 52.7282 158.626 52.9111 158.365 53.1729C158.105 53.4347 157.924 53.7551 157.823 54.1342C157.732 54.5106 157.749 54.9327 157.874 55.4004C157.997 55.8582 158.193 56.2323 158.463 56.5227C158.74 56.8004 159.057 56.9875 159.413 57.084C159.77 57.1805 160.142 57.1767 160.53 57.0727ZM166.956 57.271L164.756 49.0606C164.513 48.155 164.588 47.3615 164.982 46.6801C165.373 45.9887 166.065 45.5097 167.061 45.243C167.399 45.1524 167.732 45.1005 168.059 45.0875C168.396 45.0719 168.694 45.1093 168.953 45.2L168.793 47.0508C168.64 46.9959 168.477 46.9649 168.304 46.9578C168.132 46.9507 167.956 46.9712 167.777 47.0192C167.438 47.1098 167.201 47.28 167.065 47.5297C166.937 47.7668 166.925 48.0794 167.029 48.4676L167.229 49.214L167.556 50.1981L169.284 56.647L166.956 57.271ZM164.093 51.5422L163.613 49.7509L169.181 48.2589L169.661 50.0503L164.093 51.5422ZM172.547 55.7729L170.347 47.5625C170.104 46.6569 170.179 45.8634 170.573 45.182C170.964 44.4906 171.656 44.0116 172.652 43.7449C172.99 43.6543 173.323 43.6024 173.65 43.5894C173.987 43.5738 174.285 43.6112 174.544 43.7019L174.384 45.5527C174.231 45.4978 174.068 45.4668 173.895 45.4597C173.723 45.4526 173.547 45.4731 173.368 45.5211C173.029 45.6117 172.792 45.7819 172.656 46.0316C172.528 46.2687 172.516 46.5813 172.62 46.9695L172.82 47.7159L173.147 48.7L174.875 55.1489L172.547 55.7729ZM169.684 50.0441L169.204 48.2528L174.772 46.7608L175.252 48.5522L169.684 50.0441Z" fill="white"/>
<g clip-path="url(#clip2_2007_1265)">
<path fill-rule="evenodd" clip-rule="evenodd" d="M155.557 84.2665C154.982 82.1195 156.256 79.9127 158.403 79.3374L162.348 78.2804C169.565 76.3466 177.255 77.359 183.725 81.0948L197.435 89.0098L222.423 70.6874C226.284 67.8563 231.453 67.5741 235.599 69.9679L243.373 74.4564C244.464 75.086 245.197 76.1896 245.354 77.4389C245.511 78.6882 245.075 79.9391 244.175 80.8194L221.305 103.182L233.148 111.115L241.609 107.5C244.421 106.299 247.635 106.492 250.284 108.021C254.931 110.704 256.523 116.646 253.84 121.294L239.611 145.939C236.928 150.586 230.985 152.179 226.338 149.496C223.69 147.967 221.916 145.28 221.55 142.243L220.449 133.109L207.658 126.819L199.727 157.806C199.414 159.026 198.549 160.029 197.389 160.518C196.228 161.006 194.906 160.923 193.815 160.293L186.041 155.805C181.895 153.411 179.555 148.794 180.076 144.034L183.45 113.233L169.74 105.318C163.27 101.582 158.548 95.4284 156.614 88.2112L155.557 84.2665ZM164.374 86.0707L164.389 86.1279C165.77 91.2831 169.143 95.6783 173.765 98.3468L189.748 107.575C191.131 108.373 191.911 109.912 191.737 111.498L188.077 144.91C187.904 146.497 188.684 148.036 190.066 148.834L193.245 150.669L201.089 120.023C201.39 118.849 202.204 117.872 203.305 117.365C204.406 116.858 205.676 116.874 206.764 117.409L225.96 126.849C227.182 127.45 228.017 128.627 228.179 129.979L229.541 141.281C229.604 141.802 229.908 142.263 230.363 142.525C231.16 142.985 232.18 142.712 232.64 141.915L246.869 117.269C247.33 116.471 247.057 115.452 246.259 114.992C245.805 114.729 245.253 114.696 244.771 114.902L234.302 119.374C233.05 119.909 231.613 119.774 230.482 119.017L212.709 107.113C211.702 106.438 211.052 105.346 210.941 104.138C210.83 102.932 211.268 101.739 212.135 100.891L234.753 78.7741L231.575 76.9388C230.192 76.1408 228.469 76.235 227.182 77.1787L200.076 97.0539C198.79 97.9976 197.066 98.0917 195.684 97.2937L179.701 88.0657C175.079 85.3972 169.586 84.6741 164.431 86.0554L164.374 86.0707Z" fill="#57B333"/>
</g>
</g>
<defs>
<linearGradient id="paint0_linear_2007_1265" x1="292.138" y1="12.3999" x2="292.138" y2="251.463" gradientUnits="userSpaceOnUse">
<stop stop-color="#EBF0FF" stop-opacity="0.6"/>
<stop offset="0.5" stop-color="#C8CCFF" stop-opacity="0.5"/>
<stop offset="1" stop-color="#D9D7FF" stop-opacity="0.4"/>
</linearGradient>
<linearGradient id="paint1_linear_2007_1265" x1="292.138" y1="12.3999" x2="292.138" y2="251.463" gradientUnits="userSpaceOnUse">
<stop stop-color="#DFE8FF"/>
<stop offset="1" stop-color="#BCC5D3" stop-opacity="0.4"/>
</linearGradient>
<linearGradient id="paint2_linear_2007_1265" x1="98.1793" y1="12.7985" x2="98.1793" y2="251.861" gradientUnits="userSpaceOnUse">
<stop stop-color="#EBF0FF" stop-opacity="0.6"/>
<stop offset="0.5" stop-color="#C8CCFF" stop-opacity="0.5"/>
<stop offset="1" stop-color="#D9D7FF" stop-opacity="0.4"/>
</linearGradient>
<linearGradient id="paint3_linear_2007_1265" x1="98.1793" y1="12.7985" x2="98.1793" y2="251.861" gradientUnits="userSpaceOnUse">
<stop stop-color="#DFE8FF"/>
<stop offset="1" stop-color="#BCC5D3" stop-opacity="0.4"/>
</linearGradient>
<linearGradient id="paint4_linear_2007_1265" x1="194.676" y1="12.7985" x2="194.676" y2="251.861" gradientUnits="userSpaceOnUse">
<stop stop-color="#EBF0FF" stop-opacity="0.6"/>
<stop offset="0.5" stop-color="#C8CCFF" stop-opacity="0.5"/>
<stop offset="1" stop-color="#D9D7FF" stop-opacity="0.4"/>
</linearGradient>
<linearGradient id="paint5_linear_2007_1265" x1="194.676" y1="12.7985" x2="194.676" y2="251.861" gradientUnits="userSpaceOnUse">
<stop stop-color="#DFE8FF"/>
<stop offset="1" stop-color="#BCC5D3" stop-opacity="0.4"/>
</linearGradient>
<clipPath id="clip0_2007_1265">
<rect width="96.591" height="96.591" fill="white" transform="translate(247.061 87.4717) rotate(-15)"/>
</clipPath>
<clipPath id="clip1_2007_1265">
<rect width="96.591" height="96.591" fill="white" transform="translate(47.6705 83.4722) rotate(-15)"/>
</clipPath>
<clipPath id="clip2_2007_1265">
<rect width="96.591" height="96.591" fill="white" transform="translate(149.586 77.5332) rotate(-15)"/>
</clipPath>
</defs>
</svg>
