<svg width="119" height="119" viewBox="0 0 119 119" fill="none" xmlns="http://www.w3.org/2000/svg">
<g clip-path="url(#clip0_2007_1268)">
<path d="M47.6916 16.3874C39.234 18.6536 31.6383 23.3769 25.8651 29.96C20.0919 36.543 16.4005 44.6902 15.2576 53.3713C14.1147 62.0523 15.5717 70.8773 19.4444 78.7303C23.3171 86.5833 29.4314 93.1115 37.0143 97.4895C44.5972 101.867 53.308 103.899 62.0452 103.326C70.7824 102.753 79.1536 99.6025 86.1002 94.2722C93.0467 88.942 98.2567 81.6715 101.071 73.3802C103.886 65.0889 104.178 56.1492 101.912 47.6916C98.861 36.358 91.439 26.6974 81.2744 20.8288C71.1097 14.9602 59.0324 13.363 47.6916 16.3874ZM35.7188 31.587C36.3915 34.6998 36.1407 37.9413 34.997 40.9136C33.257 40.5465 31.1777 40.0328 28.8515 39.4061C30.7534 36.4836 33.0662 33.8502 35.7188 31.587ZM43.6767 91.8578C36.397 88.4257 30.4676 82.6669 26.8246 75.4903C39.5786 66.9688 45.3726 64.6455 47.7051 64.0205C47.5826 65.2448 47.146 66.4167 46.4375 67.4226C45.5392 68.7244 45.0135 70.2469 44.9174 71.8257C44.9276 72.9692 45.2656 74.0857 45.8913 75.0428C46.517 76 47.4042 76.7575 48.4476 77.2255C49.0712 78.8376 46.4615 85.0992 44.735 89.2451C44.3782 90.0907 44.0322 90.9918 43.6767 91.8578ZM68.5246 94.1372C62.8959 95.6456 56.985 95.7638 51.3005 94.4816C51.5892 93.7709 51.8746 93.032 52.1607 92.3428C55.5924 84.1109 59.129 75.6176 53.5962 71.1252C54.6236 69.5208 55.3028 67.7186 55.5898 65.8352C55.8768 63.9517 55.7652 62.029 55.2623 60.1914C55.024 59.2753 54.5667 58.4308 53.9298 57.7305C53.2929 57.0302 52.4954 56.4951 51.6059 56.1712C49.4654 55.3823 45.1527 53.7796 23.9846 67.7056C22.2842 60.7573 22.6934 53.4599 25.1598 46.7452C28.4829 47.6714 31.3446 48.3838 33.6986 48.8655C35.0368 49.1517 36.4282 49.061 37.718 48.6036C39.0078 48.1462 40.1454 47.34 41.0043 46.2746C44.5416 42.0602 44.6964 33.6189 42.9147 26.7672C48.7756 23.8241 55.3314 22.5445 61.8689 23.0676C50.8008 31.754 49.6926 39.405 51.0957 44.6415C54.256 56.4361 62.3409 55.2448 66.6823 54.6065C70.2904 54.0772 70.2904 54.0772 70.8122 56.0248C71.6298 59.3246 71.8038 62.751 71.3247 66.1165C70.927 70.2772 70.33 76.5704 79.1025 78.3656C80.5541 78.6571 82.054 78.6021 83.4803 78.205C87.0158 76.9138 90.2253 74.8634 92.8831 72.1981C90.8375 77.5149 87.565 82.2733 83.3321 86.0857C79.0992 89.8982 74.0256 92.6569 68.5246 94.1372ZM95.338 59.9322C92.9523 61.5484 90.69 63.3398 88.57 65.2914C85.9175 67.6146 82.2867 70.7958 80.7134 70.4757C80.2025 70.3768 79.6989 70.2431 79.2062 70.0754C79.1454 69.0066 79.1889 67.9345 79.3358 66.8741C79.9146 62.555 79.6605 58.165 78.5872 53.9415C76.2091 45.0664 68.9939 46.1289 65.5066 46.6425C61.3065 47.2637 60.1758 47.4292 58.8707 42.5582C57.1748 36.2293 65.9758 29.5004 72.4458 25.5168C79.3365 28.2044 85.2313 32.9505 89.3277 39.1087C93.424 45.267 95.5227 52.5382 95.338 59.9322Z" fill="#FFAE17"/>
</g>
<defs>
<clipPath id="clip0_2007_1268">
<rect width="96.591" height="96.591" fill="white" transform="translate(0 24.9996) rotate(-15)"/>
</clipPath>
</defs>
</svg>
