<svg width="20" height="20" viewBox="0 0 20 20" fill="none" xmlns="http://www.w3.org/2000/svg">
<path d="M2.59253 10.0001C2.59253 7.20663 2.59253 5.80989 3.46036 4.94205C4.3282 4.07422 5.72494 4.07422 8.51846 4.07422H11.4814C14.2749 4.07422 15.6717 4.07422 16.5395 4.94205C17.4073 5.80989 17.4073 7.20663 17.4073 10.0001V11.4816C17.4073 14.2751 17.4073 15.6719 16.5395 16.5397C15.6717 17.4076 14.2749 17.4076 11.4814 17.4076H8.51846C5.72494 17.4076 4.3282 17.4076 3.46036 16.5397C2.59253 15.6719 2.59253 14.2751 2.59253 11.4816V10.0001Z" stroke="#FFAE17"/>
<path opacity="0.5" d="M6.29626 4.074V2.96289" stroke="#FFAE17" stroke-linecap="round"/>
<path opacity="0.5" d="M13.7037 4.074V2.96289" stroke="#FFAE17" stroke-linecap="round"/>
<path d="M2.59253 7.77832H17.4073" stroke="#FFAE17" stroke-linecap="round"/>
<path d="M13.3333 14.4449C13.9469 14.4449 14.4444 13.9474 14.4444 13.3338C14.4444 12.7201 13.9469 12.2227 13.3333 12.2227C12.7196 12.2227 12.2222 12.7201 12.2222 13.3338C12.2222 13.9474 12.7196 14.4449 13.3333 14.4449Z" stroke="#FFAE17"/>
</svg>
