<svg width="22" height="22" viewBox="0 0 22 22" fill="none" xmlns="http://www.w3.org/2000/svg">
<path fill-rule="evenodd" clip-rule="evenodd" d="M0.888916 1.7778C0.888916 1.28689 1.28689 0.888916 1.7778 0.888916H2.67978C4.33001 0.888916 5.91266 1.54447 7.07955 2.71136L9.55176 5.18357L15.93 2.70314C16.9156 2.31988 18.0344 2.55515 18.7822 3.30286L20.1841 4.70482C20.3807 4.90147 20.4741 5.17881 20.4362 5.45432C20.3983 5.72983 20.2337 5.97175 19.9914 6.1081L13.8341 9.57158L15.9071 11.9408L17.9188 11.6534C18.5874 11.5579 19.2621 11.7828 19.7397 12.2604C20.5777 13.0984 20.5777 14.4572 19.7397 15.2952L15.2952 19.7397C14.4572 20.5777 13.0984 20.5777 12.2604 19.7397C11.7828 19.2621 11.5579 18.5874 11.6534 17.9188L11.9408 15.9071L9.57158 13.8341L6.10809 19.9914C5.97175 20.2337 5.72983 20.3983 5.45432 20.4362C5.17881 20.4741 4.90147 20.3807 4.70482 20.1841L3.30287 18.7822C2.55515 18.0344 2.31988 16.9156 2.70314 15.9301L5.18357 9.55176L2.71136 7.07956C1.54447 5.91266 0.888916 4.33001 0.888916 2.67978V1.7778ZM2.66669 2.66669V2.67978C2.66669 3.85852 3.13494 4.98898 3.96844 5.82247L6.85079 8.70482C7.10003 8.95407 7.17845 9.32705 7.05069 9.65549L4.36004 16.5743C4.23228 16.9029 4.3107 17.2758 4.55995 17.5251L5.1332 18.0983L8.55863 12.0087C8.68988 11.7754 8.91932 11.6136 9.18314 11.5684C9.44705 11.5231 9.71718 11.5992 9.91869 11.7756L13.4742 14.8866C13.7006 15.0846 13.8114 15.3836 13.7688 15.6813L13.4133 18.1702C13.3969 18.2849 13.4355 18.4006 13.5174 18.4826C13.6613 18.6264 13.8943 18.6264 14.0382 18.4826L18.4826 14.0382C18.6264 13.8943 18.6264 13.6613 18.4826 13.5174C18.4006 13.4355 18.2849 13.3969 18.1702 13.4133L15.6813 13.7688C15.3836 13.8114 15.0846 13.7006 14.8866 13.4742L11.7755 9.91869C11.5992 9.71718 11.5231 9.44705 11.5684 9.18314C11.6136 8.91932 11.7753 8.68987 12.0086 8.55862L18.0983 5.13319L17.5251 4.55995C17.2758 4.3107 16.9029 4.23228 16.5743 4.36004L9.65549 7.05069C9.32705 7.17845 8.95407 7.10003 8.70482 6.85079L5.82247 3.96844C4.98898 3.13494 3.85852 2.66669 2.67978 2.66669H2.66669Z" fill="white"/>
</svg>
