<svg width="24" height="24" viewBox="0 0 24 24" fill="none" xmlns="http://www.w3.org/2000/svg">
<path d="M3.3335 9.38118C3.3335 7.99237 3.3335 7.29797 3.70356 6.89297C3.83494 6.74917 3.99463 6.63407 4.17259 6.5549C4.67384 6.33191 5.33261 6.5515 6.65014 6.99067C7.65601 7.32597 8.15896 7.49362 8.66716 7.47626C8.85381 7.46988 9.03936 7.44504 9.22111 7.40207C9.71597 7.2851 10.1571 6.99103 11.0393 6.40289L12.3421 5.5343C13.4723 4.78091 14.0373 4.40423 14.6859 4.31737C15.3345 4.23051 15.9787 4.44526 17.2672 4.87475L18.365 5.24067C19.2981 5.5517 19.7646 5.70723 20.0315 6.07746C20.2984 6.4477 20.2984 6.93949 20.2984 7.92305V15.584C20.2984 16.9728 20.2984 17.6672 19.9283 18.0722C19.797 18.216 19.6372 18.3311 19.4593 18.4103C18.958 18.6333 18.2992 18.4137 16.9817 17.9745C15.9758 17.6392 15.4729 17.4716 14.9647 17.4889C14.7781 17.4953 14.5925 17.5201 14.4108 17.5631C13.9159 17.68 13.4748 17.9741 12.5925 18.5623L11.2897 19.4308C10.1596 20.1842 9.59458 20.561 8.94598 20.6478C8.29736 20.7347 7.65312 20.5199 6.36464 20.0904L5.26685 19.7245C4.33375 19.4135 3.8672 19.258 3.60035 18.8876C3.3335 18.5174 3.3335 18.0256 3.3335 17.0421V9.38118Z" stroke="white" stroke-width="2"/>
<path d="M8.98828 7.42871V20.4929" stroke="white" stroke-width="2"/>
<path d="M14.6431 4V17.1949" stroke="white" stroke-width="2"/>
</svg>
