<svg width="7" height="26" viewBox="0 0 7 26" fill="none" xmlns="http://www.w3.org/2000/svg">
<path d="M1.22408 16.452L0.108084 1.04904e-05H6.80408L5.68808 16.452H1.22408ZM3.45608 25.488C2.44808 25.488 1.62008 25.164 0.972084 24.516C0.324084 23.868 8.40724e-05 23.1 8.40724e-05 22.212C8.40724e-05 21.3 0.324084 20.544 0.972084 19.944C1.62008 19.32 2.44808 19.008 3.45608 19.008C4.48808 19.008 5.31608 19.32 5.94008 19.944C6.58808 20.544 6.91208 21.3 6.91208 22.212C6.91208 23.1 6.58808 23.868 5.94008 24.516C5.31608 25.164 4.48808 25.488 3.45608 25.488Z" fill="#FFAE17"/>
</svg>
