<svg width="24" height="24" viewBox="0 0 24 24" fill="none" xmlns="http://www.w3.org/2000/svg">
<path d="M8.75 20.4169V13.2224C8.75 12.678 8.75 12.4056 8.85596 12.1977C8.94918 12.0148 9.09791 11.8661 9.28084 11.7728C9.48881 11.6669 9.76101 11.6669 10.3056 11.6669H13.0278C13.5723 11.6669 13.8445 11.6669 14.0525 11.7728C14.2355 11.8661 14.3841 12.0148 14.4774 12.1977C14.5833 12.4056 14.5833 12.678 14.5833 13.2224V20.4169M10.7117 2.68745L4.11774 7.81604C3.67696 8.15887 3.45658 8.33028 3.2978 8.54495C3.15716 8.73511 3.05239 8.94932 2.98864 9.17709C2.91666 9.4342 2.91666 9.7134 2.91666 10.2718V17.3057C2.91666 18.3947 2.91666 18.9393 3.1286 19.3552C3.31501 19.721 3.61247 20.0185 3.97835 20.2049C4.39429 20.4169 4.93878 20.4169 6.02778 20.4169H17.3056C18.3945 20.4169 18.9391 20.4169 19.355 20.2049C19.7208 20.0185 20.0183 19.721 20.2047 19.3552C20.4167 18.9393 20.4167 18.3947 20.4167 17.3057V10.2718C20.4167 9.7134 20.4167 9.4342 20.3447 9.17709C20.2809 8.94932 20.1761 8.73511 20.0356 8.54495C19.8768 8.33028 19.6564 8.15887 19.2156 7.81604L12.6217 2.68745C12.2801 2.42179 12.1093 2.28895 11.9207 2.23789C11.7544 2.19284 11.579 2.19284 11.4126 2.23789C11.224 2.28895 11.0532 2.42179 10.7117 2.68745Z" stroke="white" stroke-width="2" stroke-linecap="round" stroke-linejoin="round"/>
</svg>
