<svg width="20" height="20" viewBox="0 0 20 20" fill="none" xmlns="http://www.w3.org/2000/svg">
<g clip-path="url(#clip0_477_503)">
<path d="M10.0594 1.66113C6.64323 1.66113 3.75 4.57103 3.75 8.01738C3.75 11.6268 7.10365 15.3179 9.35938 17.9122C9.36823 17.9226 9.73281 18.3273 10.1818 18.3273H10.2214C10.6708 18.3273 11.0328 17.9226 11.0417 17.9122C13.1583 15.4788 16.25 11.4658 16.25 8.01738C16.25 4.57051 13.9932 1.66113 10.0594 1.66113ZM10.2682 17.2132C10.25 17.2314 10.2234 17.2518 10.2 17.2689C10.176 17.2523 10.15 17.2314 10.1307 17.2132L9.85833 16.8997C7.71979 14.4466 4.79115 11.0867 4.79115 8.01686C4.79115 5.13561 7.20365 2.70176 10.0589 2.70176C13.6156 2.70176 15.2078 5.37103 15.2078 8.01686C15.2078 10.3471 13.5458 13.4419 10.2682 17.2132ZM10.0182 4.81478C8.29271 4.81478 6.89323 6.21374 6.89323 7.93978C6.89323 9.66582 8.29271 11.0648 10.0182 11.0648C11.7437 11.0648 13.1432 9.6653 13.1432 7.93978C13.1432 6.21426 11.7443 4.81478 10.0182 4.81478ZM10.0182 10.0231C8.86927 10.0231 7.91094 9.06582 7.91094 7.91686C7.91094 6.7679 8.84531 5.83353 9.99427 5.83353C11.1437 5.83353 12.0776 6.7679 12.0776 7.91686C12.0781 9.06582 11.1677 10.0231 10.0182 10.0231Z" fill="#FFAE17"/>
</g>
<defs>
<clipPath id="clip0_477_503">
<rect width="16.6667" height="16.6667" fill="white" transform="translate(1.66663 1.66699)"/>
</clipPath>
</defs>
</svg>
