<svg width="34" height="34" viewBox="0 0 34 34" fill="none" xmlns="http://www.w3.org/2000/svg">
<g clip-path="url(#clip0_616_821)">
<g clip-path="url(#clip1_616_821)">
<path fill-rule="evenodd" clip-rule="evenodd" d="M30.17 16.3422C30.5172 16.6893 30.5172 17.2521 30.17 17.5992L29.5323 18.237C28.3654 19.4039 26.7827 20.0595 25.1325 20.0595L21.6362 20.0595L18.8801 26.3235C18.4542 27.2914 17.4967 27.9162 16.4392 27.9162L14.4566 27.9162C14.1785 27.9162 13.9164 27.7861 13.7483 27.5645C13.5803 27.3429 13.5256 27.0554 13.6006 26.7877L15.5054 19.9847L12.3642 19.7753L11.145 21.401C10.7398 21.9413 10.1037 22.2594 9.42825 22.2594C8.24308 22.2594 7.28229 21.2986 7.28229 20.1134V13.828C7.28229 12.6428 8.24308 11.682 9.42825 11.682C10.1037 11.682 10.7398 12.0001 11.145 12.5404L12.3642 14.1661L15.5054 13.9567L13.6006 7.15372C13.5256 6.88597 13.5803 6.5985 13.7483 6.37691C13.9164 6.15532 14.1785 6.02521 14.4566 6.02519L16.4392 6.02519C17.4967 6.0252 18.4542 6.64998 18.88 7.61785L21.6362 13.8819L25.1325 13.8819C26.7827 13.8819 28.3654 14.5375 29.5323 15.7044L30.17 16.3422ZM28.2844 16.9707L28.2752 16.9615C27.4417 16.128 26.3112 15.6597 25.1325 15.6597L21.0562 15.6597C20.7037 15.6597 20.3845 15.4514 20.2426 15.1288L17.2529 8.33389C17.1109 8.01125 16.7917 7.80296 16.4392 7.80296L15.6285 7.80297L17.5124 14.5311C17.5846 14.7889 17.5367 15.0655 17.3822 15.2841C17.2275 15.5027 16.9827 15.6399 16.7155 15.6577L12.0016 15.972C11.7015 15.992 11.4117 15.859 11.2313 15.6184L9.72285 13.6071C9.65327 13.5144 9.54415 13.4598 9.42825 13.4598C9.22485 13.4598 9.06005 13.6246 9.06005 13.828V20.1134C9.06005 20.3168 9.22485 20.4816 9.42825 20.4816C9.54415 20.4816 9.65327 20.427 9.72285 20.3343L11.2313 18.323C11.4117 18.0824 11.7015 17.9494 12.0016 17.9694L16.7156 18.2837C16.9827 18.3015 17.2275 18.4387 17.3822 18.6573C17.5367 18.8759 17.5846 19.1524 17.5124 19.4102L15.6285 26.1384L16.4392 26.1384C16.7917 26.1384 17.1109 25.9302 17.2529 25.6075L20.2426 18.8126C20.3845 18.49 20.7037 18.2817 21.0562 18.2817L25.1325 18.2817C26.3112 18.2817 27.4417 17.8134 28.2752 16.98L28.2844 16.9707Z" fill="white"/>
</g>
</g>
<defs>
<clipPath id="clip0_616_821">
<rect width="24" height="24" fill="white" transform="translate(33.9412 16.9707) rotate(135)"/>
</clipPath>
<clipPath id="clip1_616_821">
<rect width="21.3333" height="21.3333" fill="white" transform="translate(32.0557 16.9707) rotate(135)"/>
</clipPath>
</defs>
</svg>
