<svg width="19" height="19" viewBox="0 0 19 19" fill="none" xmlns="http://www.w3.org/2000/svg">
<g clip-path="url(#clip0_477_521)">
<g clip-path="url(#clip1_477_521)">
<path fill-rule="evenodd" clip-rule="evenodd" d="M16.8626 9.13405C17.0566 9.32807 17.0566 9.64264 16.8626 9.83666L16.5061 10.1931C15.8539 10.8453 14.9693 11.2117 14.047 11.2117H12.0928L10.5524 14.7128C10.3143 15.2538 9.77913 15.603 9.1881 15.603L8.07995 15.603C7.92452 15.603 7.77802 15.5303 7.6841 15.4065C7.59018 15.2826 7.55963 15.1219 7.60151 14.9723L8.66617 11.17L6.91048 11.0529L6.22902 11.9615C6.00254 12.2635 5.64702 12.4413 5.26951 12.4413C4.60709 12.4413 4.07008 11.9043 4.07008 11.2419V7.72883C4.07008 7.06641 4.60709 6.5294 5.26951 6.5294C5.64702 6.5294 6.00254 6.70716 6.22902 7.00918L6.91048 7.91779L8.66617 7.80074L7.60151 3.99842C7.55963 3.84877 7.59018 3.6881 7.6841 3.56424C7.77802 3.44039 7.92452 3.36767 8.07995 3.36766L9.1881 3.36766C9.77913 3.36766 10.3143 3.71687 10.5523 4.25783L12.0928 7.75897L14.047 7.75896C14.9693 7.75897 15.8539 8.12537 16.5061 8.77757L16.8626 9.13405ZM15.8086 9.48535L15.8035 9.48018C15.3376 9.01432 14.7058 8.7526 14.047 8.75261L11.7686 8.75261C11.5716 8.7526 11.3932 8.63619 11.3139 8.45589L9.64286 4.65804C9.56351 4.47771 9.38511 4.36129 9.1881 4.36129L8.73498 4.3613L9.78791 8.12181C9.82825 8.2659 9.80151 8.42051 9.71513 8.54266C9.62871 8.66484 9.49187 8.74153 9.34253 8.75148L6.70778 8.92716C6.54007 8.93833 6.37812 8.864 6.27729 8.72952L5.43416 7.60534C5.39527 7.55353 5.33429 7.52303 5.26951 7.52303C5.15582 7.52303 5.06371 7.61515 5.06371 7.72883V11.2419C5.06371 11.3556 5.15582 11.4477 5.26951 11.4477C5.33429 11.4477 5.39527 11.4172 5.43416 11.3654L6.27729 10.2412C6.37812 10.1067 6.54007 10.0324 6.70778 10.0435L9.34257 10.2192C9.49187 10.2292 9.62871 10.3059 9.71513 10.428C9.80151 10.5502 9.82829 10.7048 9.78795 10.8489L8.73498 14.6094H9.1881C9.38511 14.6094 9.56351 14.493 9.64286 14.3127L11.3139 10.5148C11.3932 10.3345 11.5716 10.2181 11.7686 10.2181L14.047 10.2181C14.7058 10.2181 15.3376 9.95638 15.8035 9.49052L15.8086 9.48535Z" fill="#3EC632"/>
</g>
</g>
<defs>
<clipPath id="clip0_477_521">
<rect width="13.4141" height="13.4141" fill="white" transform="translate(18.9705 9.48535) rotate(135)"/>
</clipPath>
<clipPath id="clip1_477_521">
<rect width="11.9237" height="11.9237" fill="white" transform="translate(17.9165 9.48535) rotate(135)"/>
</clipPath>
</defs>
</svg>
