<svg width="61" height="36" viewBox="0 0 61 36" fill="none" xmlns="http://www.w3.org/2000/svg">
<path d="M44.082 0C44.082 1.6749 45.4403 3.0332 47.1152 3.0332C48.7901 3.03314 50.1484 1.67486 50.1484 0H55.7256L55.7197 0.00195312H55.7285C58.4009 0.00221185 60.5703 2.17226 60.5703 4.84473V30.7412C60.5703 33.4137 58.4009 35.5837 55.7285 35.584H50.1387V35.5723C50.0085 34.0156 48.704 32.795 47.1133 32.7949C45.5305 32.8109 44.2362 34.0213 44.0859 35.582H4.8418C2.16923 35.582 0 33.4118 0 30.7393V4.84277C0 2.17019 2.16923 6.95703e-05 4.8418 0H44.082ZM55.0566 25.9609V27.1152H51.7871V28.0244H55.0527V29.1787H55.8223L55.8262 25.9609H55.0566ZM47.4072 26.8311C47.0108 26.8313 46.6866 27.1553 46.6865 27.5518V28.0332C46.6867 28.4296 47.0109 28.7537 47.4072 28.7539C47.8038 28.7539 48.1287 28.4297 48.1289 28.0332V27.5518C48.1288 27.1552 47.8038 26.8311 47.4072 26.8311ZM27.1123 8.70703C26.7278 8.70713 26.4171 9.01783 26.417 9.40234C26.417 9.47848 26.4311 9.55308 26.4512 9.61719L28.3262 15.7236H24.8643L23.7588 14.2812L23.7568 14.2793C23.6347 14.1051 23.4304 13.9923 23.2021 13.9922H21.8633C21.6349 13.9922 21.4308 14.105 21.3066 14.2812L21.3086 14.2754C21.2346 14.4056 21.1924 14.5596 21.1924 14.7197C21.1944 14.7858 21.1999 14.8482 21.2119 14.9043L22.0293 17.749L21.2119 20.5859V20.582C21.1799 20.6541 21.1621 20.7363 21.1621 20.8203C21.1621 20.9686 21.2165 21.1068 21.3047 21.2109L21.3066 21.2129C21.4288 21.3872 21.633 21.499 21.8613 21.499H23.2002C23.4284 21.4989 23.6327 21.3871 23.7568 21.2109L24.8623 19.7686H28.3242L26.4492 25.7705V25.7666C26.4172 25.8386 26.3995 25.9209 26.3994 26.0049C26.3994 26.1529 26.4531 26.2914 26.541 26.3955L26.5439 26.3984C26.6662 26.5724 26.8705 26.6846 27.0986 26.6846H28.8496C29.104 26.6745 29.3284 26.5459 29.4727 26.3496L33.6074 19.7148H37.9834C39.0912 19.6968 39.9864 18.805 40.0146 17.6992C40.0086 16.5873 39.107 15.6857 37.9951 15.6797H33.6201L29.4844 9.04395L29.4824 9.04199C29.3402 8.84768 29.1158 8.71905 28.8594 8.70703H27.1123ZM17.7559 25.0518C17.4917 25.052 17.2755 25.268 17.2754 25.5322C17.2754 25.7965 17.4916 26.0134 17.7559 26.0137C17.7677 26.0137 17.7801 26.0136 17.79 26.0117H25.4639L25.4854 26.0176C25.7398 25.9995 25.9448 25.7945 25.9648 25.5381C25.9667 25.5283 25.9668 25.5167 25.9668 25.5088C25.9668 25.2564 25.7642 25.0537 25.5117 25.0537H17.79C17.7801 25.0518 17.7678 25.0518 17.7559 25.0518ZM47.4072 23.4648C47.0107 23.4651 46.6865 23.79 46.6865 24.1865V24.667C46.6865 25.0635 47.0107 25.3885 47.4072 25.3887C47.8039 25.3887 48.1289 25.0637 48.1289 24.667V24.1865C48.1289 23.7898 47.8039 23.4648 47.4072 23.4648ZM28.4629 10.0977L32.5996 16.7354C32.7418 16.9296 32.9664 17.0582 33.2227 17.0703H37.9834L37.9795 17.0742C38.2679 17.0743 38.5598 17.3742 38.5078 17.6025C38.4838 17.9069 38.24 18.1517 37.9316 18.1719H33.1709C32.9166 18.1819 32.6921 18.3097 32.5479 18.5059L28.4131 25.1494H28.0762L29.9512 19.1318V19.1357C29.9832 19.0638 30.0019 18.9814 30.002 18.8975C30.002 18.7492 29.9475 18.61 29.8594 18.5059L29.8574 18.5039C29.7353 18.3298 29.5309 18.2179 29.3027 18.2178H24.5059C24.2777 18.2178 24.0734 18.3298 23.9492 18.5059L22.8916 19.9092L23.4678 17.8369V17.8408C23.4918 17.7808 23.5059 17.7145 23.5059 17.6465C23.5058 17.5785 23.4937 17.5101 23.4697 17.4541L22.8936 15.3389L23.9531 16.7354C24.0753 16.9056 24.2756 17.0176 24.5039 17.0176H29.3408C29.7253 17.0173 30.0352 16.7068 30.0352 16.3223C30.0351 16.2464 30.0219 16.1724 30.002 16.1084L28.126 10.0977H28.4629ZM51.8291 22.2686V24.9971H52.5508V23.1787H53.5117V24.7695H54.2334V23.1787H55.0986V24.9492H55.8203L55.8682 24.9619V22.2686H51.8291ZM6.09375 10.7207C5.69722 10.7209 5.37305 11.0458 5.37305 11.4424V24.1357C5.37305 24.5323 5.69722 24.8572 6.09375 24.8574C6.49044 24.8574 6.81543 24.5324 6.81543 24.1357V11.4424C6.81543 11.0457 6.49044 10.7207 6.09375 10.7207ZM21.9736 22.4053C21.7232 22.4233 21.5245 22.6294 21.5244 22.8857C21.5244 23.1422 21.7232 23.3492 21.9736 23.3672H26.0645C26.3149 23.3492 26.5137 23.1422 26.5137 22.8857C26.5136 22.6294 26.3148 22.4233 26.0645 22.4053H21.9736ZM8.83496 13.2207C8.43828 13.2207 8.1133 13.5457 8.11328 13.9424V21.6357C8.11328 22.0324 8.43828 22.3574 8.83496 22.3574C9.23159 22.3574 9.55566 22.0324 9.55566 21.6357V13.9424C9.55565 13.5457 9.23158 13.2208 8.83496 13.2207ZM47.4072 20.0947C47.0107 20.0949 46.6865 20.4199 46.6865 20.8164V21.3008C46.6865 21.6973 47.0107 22.0222 47.4072 22.0225C47.8039 22.0225 48.1289 21.6975 48.1289 21.3008V20.8164C48.1289 20.4197 47.8039 20.0947 47.4072 20.0947ZM51.7256 17.7891V18.6982H52.7344L53.416 19.2275L51.7812 20.1895V21.1953L54.1377 19.7529L55.8203 21.0029V19.9932L54.0029 18.6963H55.7637V17.7891H51.7256ZM47.4092 16.7314C47.0128 16.7317 46.6887 17.0558 46.6885 17.4521V17.9375C46.6886 18.334 47.0128 18.658 47.4092 18.6582C47.8058 18.6582 48.1308 18.3341 48.1309 17.9375V17.4521C48.1307 17.0556 47.8058 16.7314 47.4092 16.7314ZM53.8076 12.9199C53.7591 12.9179 53.7085 12.915 53.6582 12.915C52.5985 12.9132 51.7393 13.7722 51.7393 14.834C51.7393 14.8538 51.7412 14.8756 51.7412 14.8916L51.7393 14.9902C51.7393 15.6793 52.1016 16.2823 52.6504 16.627L53.0352 15.8574L53.0293 15.8555C52.7168 15.6791 52.5049 15.3426 52.5049 14.958C52.5049 14.9542 52.5049 14.9541 52.5049 14.9502C52.5049 14.3732 52.9352 13.8946 53.8027 13.8926C54.6702 13.8906 55.1006 14.3732 55.1006 14.9502C55.1006 14.9541 55.1006 14.9542 55.1006 14.958C55.1006 15.3425 54.8906 15.681 54.5723 15.8594L54.957 16.6289L54.9551 16.6309L54.9629 16.627C55.5117 16.3304 55.8848 15.7491 55.8848 15.084L55.874 14.8984C55.876 14.8684 55.876 14.8397 55.876 14.8076C55.8758 13.7621 55.027 12.9133 53.9814 12.9131C53.9185 12.9131 53.859 12.916 53.8076 12.9199ZM47.4092 13.3652C47.0127 13.3655 46.6885 13.6904 46.6885 14.0869V14.5713C46.6885 14.9678 47.0127 15.2927 47.4092 15.293C47.8059 15.293 48.1309 14.968 48.1309 14.5713V14.0869C48.1309 13.6902 47.8059 13.3652 47.4092 13.3652ZM53.8125 12.9209H53.8047L53.8076 12.9199C53.8093 12.92 53.8109 12.9208 53.8125 12.9209ZM26.1084 11.7305H22.0176C22.0076 11.7285 21.9954 11.7285 21.9834 11.7285C21.7192 11.7286 21.5032 11.9448 21.5029 12.209C21.5029 12.4734 21.719 12.6903 21.9834 12.6904C21.9954 12.6904 22.0076 12.6905 22.0176 12.6885H26.1084C26.1184 12.6905 26.1306 12.6904 26.1426 12.6904C26.407 12.6904 26.624 12.4734 26.624 12.209C26.6238 11.9447 26.4069 11.7285 26.1426 11.7285C26.1306 11.7285 26.1184 11.7285 26.1084 11.7305ZM47.4092 10C47.0127 10.0002 46.6885 10.3242 46.6885 10.7207V11.2061C46.6887 11.6024 47.0128 11.9265 47.4092 11.9268C47.8057 11.9268 48.1307 11.6026 48.1309 11.2061V10.7207C48.1308 10.3241 47.8058 10 47.4092 10ZM51.7832 10.7754V11.6846H55.8223V10.7754H51.7832ZM17.792 9.22461C17.5257 9.2228 17.3096 9.43878 17.3096 9.70312C17.3076 9.71313 17.3076 9.7254 17.3076 9.7334C17.3078 9.98571 17.5104 10.1875 17.7627 10.1875H25.4834C25.4934 10.1895 25.5056 10.1895 25.5176 10.1895C25.782 10.1895 25.999 9.97344 25.999 9.70898C25.999 9.44457 25.782 9.22852 25.5176 9.22852C25.5056 9.22852 25.4934 9.22847 25.4834 9.23047H17.79L17.792 9.22461ZM55.0527 6.39551V7.55371H51.7832V8.46289H55.0527V9.61719H55.8223V6.39551H55.0527ZM47.4092 6.63379C47.0127 6.63404 46.6885 6.95893 46.6885 7.35547V7.83984C46.6885 8.23638 47.0127 8.56128 47.4092 8.56152C47.8059 8.56152 48.1309 8.23653 48.1309 7.83984V7.35547C48.1309 6.95878 47.8059 6.63379 47.4092 6.63379Z" fill="#FFAE17"/>
</svg>
