<svg width="22" height="24" viewBox="0 0 22 24" fill="none" xmlns="http://www.w3.org/2000/svg">
<path d="M10.9284 14.6894C12.6732 14.6894 14.0876 13.275 14.0876 11.5303C14.0876 9.7855 12.6732 8.37109 10.9284 8.37109C9.18366 8.37109 7.76926 9.7855 7.76926 11.5303C7.76926 13.275 9.18366 14.6894 10.9284 14.6894Z" stroke="white" stroke-width="2"/>
<path d="M12.7875 1.16032C12.4004 1 11.9098 1 10.9284 1C9.94708 1 9.45647 1 9.06936 1.16032C8.55333 1.37408 8.14333 1.78408 7.92957 2.30013C7.83199 2.53571 7.7938 2.80967 7.77886 3.2093C7.7569 3.79657 7.45573 4.34017 6.94676 4.63402C6.43782 4.92785 5.81647 4.91688 5.29689 4.64226C4.94334 4.45539 4.68698 4.35147 4.43418 4.31819C3.88038 4.24528 3.3203 4.39535 2.87715 4.73539C2.54479 4.99042 2.29946 5.41535 1.8088 6.2652C1.31814 7.11505 1.07281 7.53997 1.01812 7.95533C0.94522 8.50912 1.09529 9.0692 1.43533 9.51236C1.59053 9.71465 1.80866 9.88462 2.14721 10.0973C2.64489 10.4101 2.96511 10.9428 2.96508 11.5305C2.96505 12.1183 2.64484 12.6509 2.1472 12.9635C1.80861 13.1764 1.59045 13.3464 1.43523 13.5487C1.09519 13.9918 0.945115 14.5519 1.01803 15.1057C1.0727 15.521 1.31803 15.946 1.80869 16.7958C2.29936 17.6456 2.54469 18.0706 2.87705 18.3256C3.32019 18.6656 3.88027 18.8157 4.43407 18.7428C4.68686 18.7095 4.9432 18.6056 5.29673 18.4188C5.81634 18.1441 6.43774 18.1332 6.94672 18.427C7.4557 18.7209 7.7569 19.2645 7.77886 19.8519C7.79381 20.2514 7.83199 20.5254 7.92957 20.761C8.14333 21.277 8.55333 21.687 9.06936 21.9008C9.45647 22.0611 9.94708 22.0611 10.9284 22.0611C11.9098 22.0611 12.4004 22.0611 12.7875 21.9008C13.3035 21.687 13.7135 21.277 13.9272 20.761C14.0248 20.5254 14.0631 20.2514 14.078 19.8518C14.0999 19.2645 14.4011 18.7209 14.91 18.427C15.419 18.1331 16.0404 18.1441 16.5601 18.4188C16.9136 18.6056 17.1699 18.7094 17.4226 18.7427C17.9764 18.8157 18.5365 18.6656 18.9797 18.3256C19.312 18.0705 19.5574 17.6456 20.048 16.7957C20.5387 15.9459 20.7841 15.521 20.8387 15.1057C20.9116 14.5519 20.7615 13.9917 20.4215 13.5486C20.2663 13.3463 20.0481 13.1763 19.7095 12.9635C19.212 12.6509 18.8917 12.1181 18.8917 11.5304C18.8917 10.9427 19.212 10.4102 19.7095 10.0975C20.0482 9.88472 20.2664 9.71476 20.4216 9.51236C20.7616 9.06927 20.9117 8.50919 20.8388 7.95539C20.7842 7.54005 20.5388 7.11512 20.0481 6.26527C19.5575 5.41542 19.3121 4.9905 18.9798 4.73547C18.5366 4.39543 17.9765 4.24535 17.4227 4.31827C17.17 4.35154 16.9137 4.45545 16.5601 4.6423C16.0405 4.91693 15.4191 4.92791 14.9101 4.63405C14.4011 4.34019 14.0999 3.79655 14.078 3.20924C14.0631 2.80965 14.0248 2.5357 13.9272 2.30013C13.7135 1.78408 13.3035 1.37408 12.7875 1.16032Z" stroke="white" stroke-width="2"/>
</svg>
