<svg width="39" height="39" viewBox="0 0 39 39" fill="none" xmlns="http://www.w3.org/2000/svg">
<path d="M15.813 9.37059L4.64104 15.7625C4.24655 15.9882 3.9187 16.3141 3.69069 16.7073C3.46267 17.1004 3.34259 17.5468 3.3426 18.0013L3.3426 18.9598C3.3426 19.5592 3.88006 20.0156 4.47157 19.9185L8.42199 19.2699L9.26988 19.1307L11.8144 18.713L12.6614 18.574L15.8131 18.0565L15.813 9.37059Z" fill="#D9D9D9"/>
<path d="M9.91898 19.0241L15.813 18.0565L15.813 9.37059L9.91898 12.7428L9.91898 19.0241Z" fill="url(#paint0_linear_2038_1771)"/>
<path d="M33.8098 15.763L22.6379 9.37104L22.6379 18.0569L25.7468 18.5673L26.5937 18.7063L29.1383 19.1241L29.9862 19.2633L33.9794 19.9189C34.5709 20.016 35.1083 19.5595 35.1083 18.9602L35.1083 18.0017C35.1083 17.5473 34.9882 17.1009 34.7601 16.7077C34.5321 16.3146 34.2043 15.9887 33.8098 15.763Z" fill="#D9D9D9"/>
<path d="M28.5318 19.0246L22.6379 18.0569L22.6379 9.37104L28.5318 12.7432L28.5318 19.0246Z" fill="url(#paint1_linear_2038_1771)"/>
<path d="M17.6258 26.3219L12.389 29.3181C12.204 29.4239 12.0504 29.5767 11.9435 29.761C11.8366 29.9453 11.7803 30.1545 11.7803 30.3676V30.8168C11.7803 31.0978 12.0322 31.3118 12.3095 31.2662L17.6258 30.3934L17.6258 26.3219Z" fill="url(#paint2_linear_2038_1771)"/>
<path d="M14.8628 30.8468L17.6256 30.3932L17.6256 26.3217L14.8628 27.9024L14.8628 30.8468Z" fill="url(#paint3_linear_2038_1771)"/>
<path d="M26.0617 29.318L20.8248 26.3218L20.8248 30.3933L22.093 30.6015L22.9318 30.7393L26.1412 31.2662C26.4184 31.3118 26.6704 31.0978 26.6704 30.8168L26.6704 30.3676C26.6704 30.1545 26.6141 29.9452 26.5072 29.7609C26.4003 29.5766 26.2466 29.4238 26.0617 29.318Z" fill="#D9D9D9"/>
<path d="M23.5876 30.8469L20.8248 30.3933L20.8248 26.3218L23.5876 27.9025L23.5876 30.8469Z" fill="url(#paint4_linear_2038_1771)"/>
<path d="M24.9929 28.7065L26.0617 29.318C26.2466 29.4238 26.4003 29.5766 26.5072 29.7609C26.6141 29.9452 26.6704 30.1544 26.6704 30.3675L26.6704 30.8167C26.6704 31.0977 26.4185 31.3116 26.1412 31.2661L20.8248 30.3933L20.8248 28.7065L24.9929 28.7065Z" fill="url(#paint5_linear_2038_1771)"/>
<path d="M15.0684 11.8856C15.0684 4.42075 16.9295 0.971372 19.2252 0.971372C21.5209 0.971372 23.382 4.42071 23.3821 11.8856C23.3821 15.5553 22.9323 18.883 22.2021 21.3184C21.625 23.2433 21.3315 25.265 21.3348 27.304L21.3348 27.3403C21.3348 30.7181 20.5744 32.4647 19.5767 32.7884C19.3119 32.9215 18.9072 32.808 18.7379 32.7346C17.8079 32.3005 17.1157 30.563 17.1157 27.3403L17.1157 27.304C17.119 25.265 16.8255 23.2433 16.2484 21.3184C15.5182 18.883 15.0684 15.5553 15.0684 11.8856Z" fill="url(#paint6_linear_2038_1771)"/>
<path d="M16.7223 4.81623C16.5793 5.47607 16.4585 6.2234 16.3637 7.06022C16.3259 7.39401 16.6174 7.67039 16.9495 7.61926C18.4576 7.38591 19.9926 7.38558 21.5008 7.61827C21.8328 7.66928 22.1242 7.3929 22.0864 7.05919C21.9915 6.22234 21.8707 5.47504 21.7276 4.81525C21.6824 4.60679 21.5102 4.4499 21.2989 4.42033C19.9229 4.22717 18.5267 4.2275 17.1508 4.42131C16.9396 4.45097 16.7675 4.60782 16.7223 4.81623Z" fill="url(#paint7_linear_2038_1771)"/>
<path d="M16.7223 4.81623C16.5793 5.47607 16.4585 6.2234 16.3637 7.06022C16.3259 7.39401 16.6174 7.67039 16.9495 7.61926C18.4576 7.38591 19.9926 7.38558 21.5008 7.61827C21.8328 7.66928 22.1242 7.3929 22.0864 7.05919C21.9915 6.22234 21.8707 5.47504 21.7276 4.81525C21.6824 4.60679 21.5102 4.4499 21.2989 4.42033C19.9229 4.22717 18.5267 4.2275 17.1508 4.42131C16.9396 4.45097 16.7675 4.60782 16.7223 4.81623Z" fill="url(#paint8_linear_2038_1771)"/>
<path d="M16.7223 4.81623C16.5793 5.47607 16.4585 6.2234 16.3637 7.06022C16.3259 7.39401 16.6174 7.67039 16.9495 7.61926C18.4576 7.38591 19.9926 7.38558 21.5008 7.61827C21.8328 7.66928 22.1242 7.3929 22.0864 7.05919C21.9915 6.22234 21.8707 5.47504 21.7276 4.81525C21.6824 4.60679 21.5102 4.4499 21.2989 4.42033C19.9229 4.22717 18.5267 4.2275 17.1508 4.42131C16.9396 4.45097 16.7675 4.60782 16.7223 4.81623Z" fill="url(#paint9_linear_2038_1771)"/>
<path d="M20.4153 28.3723L20.4153 30.0498C20.4153 30.161 20.4595 30.2677 20.5381 30.3464C20.6168 30.425 20.7235 30.4692 20.8347 30.4692C20.9459 30.4692 21.0526 30.425 21.1313 30.3464C21.2099 30.2677 21.2541 30.161 21.2541 30.0498L21.2541 28.3723C21.2541 28.2611 21.2099 28.1544 21.1313 28.0757C21.0526 27.9971 20.9459 27.9529 20.8347 27.9529C20.7235 27.9529 20.6168 27.9971 20.5381 28.0757C20.4595 28.1544 20.4153 28.2611 20.4153 28.3723Z" fill="url(#paint10_linear_2038_1771)"/>
<path d="M17.4798 30.004C17.5349 30.004 17.5894 29.9932 17.6403 29.9721C17.6912 29.951 17.7374 29.9201 17.7764 29.8812C17.8153 29.8422 17.8462 29.796 17.8673 29.7451C17.8884 29.6942 17.8992 29.6397 17.8992 29.5846L17.8992 27.9244C17.8992 27.8132 17.855 27.7065 17.7764 27.6279C17.6977 27.5492 17.591 27.505 17.4798 27.505C17.3686 27.505 17.2619 27.5492 17.1833 27.6279C17.1046 27.7065 17.0604 27.8132 17.0604 27.9244L17.0604 29.5846C17.0604 29.6958 17.1046 29.8025 17.1833 29.8811C17.2619 29.9598 17.3686 30.004 17.4798 30.004Z" fill="url(#paint11_linear_2038_1771)"/>
<path d="M19.5768 27.9829L19.5768 26.3054C19.5768 26.1942 19.5327 26.0875 19.454 26.0088C19.3754 25.9302 19.2687 25.886 19.1574 25.886C19.1024 25.886 19.0478 25.8969 18.997 25.9179C18.9461 25.939 18.8998 25.9699 18.8609 26.0088C18.7822 26.0875 18.7381 26.1942 18.7381 26.3054L18.7381 27.9829C18.7381 28.0941 18.7822 28.2008 18.8609 28.2795C18.9395 28.3581 19.0462 28.4023 19.1574 28.4023C19.2687 28.4023 19.3754 28.3581 19.454 28.2795C19.5327 28.2008 19.5768 28.0941 19.5768 27.9829Z" fill="url(#paint12_linear_2038_1771)"/>
<path d="M15.389 30.7602L16.2277 30.6225V28.6745C16.2277 28.5633 16.1836 28.4566 16.1049 28.378C16.0262 28.2993 15.9196 28.2551 15.8083 28.2551C15.6971 28.2551 15.5904 28.2993 15.5118 28.378C15.4331 28.4566 15.3889 28.5633 15.3889 28.6745L15.389 30.7602Z" fill="url(#paint13_linear_2038_1771)"/>
<path d="M10.5416 15.0131C10.4859 15.0131 10.4308 15.024 10.3793 15.0453C10.3279 15.0666 10.2812 15.0979 10.2418 15.1372C10.2024 15.1766 10.1712 15.2233 10.1499 15.2748C10.1286 15.3262 10.1176 15.3813 10.1176 15.437L10.1176 18.9918L10.9655 18.8526L10.9655 15.437C10.9655 15.3813 10.9546 15.3262 10.9332 15.2748C10.9119 15.2233 10.8807 15.1766 10.8414 15.1372C10.802 15.0979 10.7552 15.0666 10.7038 15.0453C10.6524 15.024 10.5972 15.0131 10.5416 15.0131Z" fill="url(#paint14_linear_2038_1771)"/>
<defs>
<linearGradient id="paint0_linear_2038_1771" x1="13.4739" y1="14.1954" x2="16.3026" y2="14.1954" gradientUnits="userSpaceOnUse">
<stop stop-color="#678D98" stop-opacity="0"/>
<stop offset="0.227" stop-color="#638892" stop-opacity="0.227"/>
<stop offset="0.522" stop-color="#597B82" stop-opacity="0.522"/>
<stop offset="0.853" stop-color="#476567" stop-opacity="0.853"/>
<stop offset="1" stop-color="#3E5959"/>
</linearGradient>
<linearGradient id="paint1_linear_2038_1771" x1="24.9812" y1="14.1957" x2="22.1524" y2="14.1957" gradientUnits="userSpaceOnUse">
<stop stop-color="#678D98" stop-opacity="0"/>
<stop offset="0.227" stop-color="#638892" stop-opacity="0.227"/>
<stop offset="0.522" stop-color="#597B82" stop-opacity="0.522"/>
<stop offset="0.853" stop-color="#476567" stop-opacity="0.853"/>
<stop offset="1" stop-color="#3E5959"/>
</linearGradient>
<linearGradient id="paint2_linear_2038_1771" x1="14.7655" y1="29.6478" x2="15.7276" y2="29.8827" gradientUnits="userSpaceOnUse">
<stop stop-color="#EBEBEB"/>
<stop offset="1" stop-color="#CECECE"/>
</linearGradient>
<linearGradient id="paint3_linear_2038_1771" x1="16.528" y1="28.5823" x2="17.8539" y2="28.5823" gradientUnits="userSpaceOnUse">
<stop stop-color="#678D98" stop-opacity="0"/>
<stop offset="0.227" stop-color="#638892" stop-opacity="0.227"/>
<stop offset="0.522" stop-color="#597B82" stop-opacity="0.522"/>
<stop offset="0.853" stop-color="#476567" stop-opacity="0.853"/>
<stop offset="1" stop-color="#3E5959"/>
</linearGradient>
<linearGradient id="paint4_linear_2038_1771" x1="21.9267" y1="28.5822" x2="20.6007" y2="28.5822" gradientUnits="userSpaceOnUse">
<stop stop-color="#678D98" stop-opacity="0"/>
<stop offset="0.227" stop-color="#638892" stop-opacity="0.227"/>
<stop offset="0.522" stop-color="#597B82" stop-opacity="0.522"/>
<stop offset="0.853" stop-color="#476567" stop-opacity="0.853"/>
<stop offset="1" stop-color="#3E5959"/>
</linearGradient>
<linearGradient id="paint5_linear_2038_1771" x1="23.7022" y1="30.057" x2="23.5278" y2="30.9877" gradientUnits="userSpaceOnUse">
<stop stop-color="#678D98" stop-opacity="0"/>
<stop offset="0.227" stop-color="#638892" stop-opacity="0.227"/>
<stop offset="0.522" stop-color="#597B82" stop-opacity="0.522"/>
<stop offset="0.853" stop-color="#476567" stop-opacity="0.853"/>
<stop offset="1" stop-color="#3E5959"/>
</linearGradient>
<linearGradient id="paint6_linear_2038_1771" x1="16.6677" y1="17.0302" x2="20.9465" y2="17.0222" gradientUnits="userSpaceOnUse">
<stop stop-color="#EBEBEB"/>
<stop offset="1" stop-color="#CECECE"/>
</linearGradient>
<linearGradient id="paint7_linear_2038_1771" x1="18.0751" y1="5.94859" x2="20.6377" y2="5.94859" gradientUnits="userSpaceOnUse">
<stop stop-color="#5A5A5A"/>
<stop offset="1" stop-color="#444444"/>
</linearGradient>
<linearGradient id="paint8_linear_2038_1771" x1="17.7608" y1="5.72615" x2="16.3959" y2="5.41592" gradientUnits="userSpaceOnUse">
<stop stop-color="#433F43" stop-opacity="0"/>
<stop offset="0.317" stop-color="#3B373B" stop-opacity="0.317"/>
<stop offset="0.822" stop-color="#242324" stop-opacity="0.822"/>
<stop offset="1" stop-color="#1A1A1A"/>
</linearGradient>
<linearGradient id="paint9_linear_2038_1771" x1="19.2228" y1="5.58412" x2="19.2228" y2="4.15175" gradientUnits="userSpaceOnUse">
<stop stop-color="#433F43" stop-opacity="0"/>
<stop offset="0.317" stop-color="#3B373B" stop-opacity="0.317"/>
<stop offset="0.822" stop-color="#242324" stop-opacity="0.822"/>
<stop offset="1" stop-color="#1A1A1A"/>
</linearGradient>
<linearGradient id="paint10_linear_2038_1771" x1="20.8347" y1="28.4418" x2="20.8347" y2="30.318" gradientUnits="userSpaceOnUse">
<stop stop-color="#8379C1" stop-opacity="0.01"/>
<stop offset="0.283" stop-color="#8374BE" stop-opacity="0"/>
<stop offset="0.586" stop-color="#8268B5" stop-opacity="0"/>
<stop offset="0.899691" stop-color="#8152A6" stop-opacity="0"/>
</linearGradient>
<linearGradient id="paint11_linear_2038_1771" x1="17.4799" y1="27.9146" x2="17.4799" y2="30.325" gradientUnits="userSpaceOnUse">
<stop stop-color="#8379C1" stop-opacity="0.01"/>
<stop offset="0.283" stop-color="#8374BE" stop-opacity="0"/>
<stop offset="0.586" stop-color="#8268B5" stop-opacity="0"/>
<stop offset="0.899691" stop-color="#8152A6" stop-opacity="0"/>
</linearGradient>
<linearGradient id="paint12_linear_2038_1771" x1="19.1575" y1="25.9645" x2="19.1575" y2="28.3392" gradientUnits="userSpaceOnUse">
<stop stop-color="#8379C1" stop-opacity="0.01"/>
<stop offset="0.283" stop-color="#8374BE" stop-opacity="0"/>
<stop offset="0.586" stop-color="#8268B5" stop-opacity="0"/>
<stop offset="0.899691" stop-color="#8152A6" stop-opacity="0"/>
</linearGradient>
<linearGradient id="paint13_linear_2038_1771" x1="15.8083" y1="28.8241" x2="15.8083" y2="30.9403" gradientUnits="userSpaceOnUse">
<stop stop-color="#8379C1" stop-opacity="0.01"/>
<stop offset="0.283" stop-color="#8374BE" stop-opacity="0"/>
<stop offset="0.586" stop-color="#8268B5" stop-opacity="0"/>
<stop offset="0.899691" stop-color="#8152A6" stop-opacity="0"/>
</linearGradient>
<linearGradient id="paint14_linear_2038_1771" x1="10.5416" y1="16.5078" x2="10.5416" y2="19.5138" gradientUnits="userSpaceOnUse">
<stop stop-color="#8379C1" stop-opacity="0.01"/>
<stop offset="0.283" stop-color="#8374BE" stop-opacity="0"/>
<stop offset="0.586" stop-color="#8268B5" stop-opacity="0"/>
<stop offset="0.899691" stop-color="#8152A6" stop-opacity="0"/>
</linearGradient>
</defs>
</svg>
